# This file uses centimeters as units for non-parametric coordinates.

mtllib des_trench.mtl
g default
v -0.500000 -0.000000 0.500000
v 0.500000 -0.000000 0.500000
v -0.500000 0.000000 -0.500000
v 0.500000 0.000000 -0.500000
v -0.500000 -0.243737 0.329242
v 0.500000 -0.243737 0.329242
v 0.500000 -0.243737 -0.329242
v -0.500000 -0.243737 -0.329242
v -0.321248 -0.000000 0.454773
v -0.321248 -0.243737 0.284015
v -0.321248 -0.243737 -0.329242
v -0.321248 0.000000 -0.500000
v -0.021035 -0.000000 0.500000
v -0.021035 -0.243737 0.329242
v -0.021035 -0.243737 -0.296104
v -0.021035 0.000000 -0.466862
v 0.205046 -0.000000 0.452876
v 0.205046 -0.243737 0.282118
v 0.205046 -0.243737 -0.246793
v 0.205046 0.000000 -0.417551
v 0.383896 0.000000 -0.446075
v 0.383896 -0.243737 -0.275317
v 0.383896 -0.243737 0.289507
v 0.383896 -0.000000 0.460265
v -0.021035 -0.000000 0.500000
v 0.500000 -0.000000 0.500000
v 0.205046 -0.000000 0.452876
v 0.383896 -0.000000 0.460265
v -0.321248 0.000000 -0.500000
v -0.021035 0.000000 -0.466862
v 0.500000 0.000000 -0.500000
v 0.205046 0.000000 -0.417551
v 0.383896 0.000000 -0.446075
vt -0.832337 0.997243
vt -0.832337 0.001110
vt -0.176400 0.001110
vt -0.176400 0.997243
vt 0.588794 1.007338
vt 0.588794 0.002030
vt 0.995266 0.002030
vt 0.995266 1.007338
vt 0.582424 0.011901
vt 0.582424 0.998858
vt 0.183371 0.830327
vt 0.183371 0.180432
vt 0.996538 0.003842
vt 0.996538 0.999975
vt 0.593775 0.999975
vt 0.593775 0.003842
vt 0.582303 0.003842
vt 0.582303 0.999975
vt 0.179540 0.829877
vt 0.179540 0.173940
vt 0.588794 0.827637
vt -0.832337 0.819182
vt 0.995267 0.827637
vt 0.593775 0.821914
vt -0.176400 0.819182
vt 0.996538 0.821914
vt 0.588794 0.525831
vt -0.832337 0.520130
vt 0.995267 0.525831
vt 0.593775 0.522863
vt -0.176400 0.520130
vt 0.996538 0.522863
vt 0.588794 0.298550
vt -0.832337 0.294924
vt 0.995266 0.298550
vt 0.593775 0.297656
vt -0.176400 0.294924
vt 0.996538 0.297656
vt 0.996538 0.119497
vt 0.593775 0.119497
vt -0.176400 0.116765
vt -0.832337 0.116765
vt 0.995266 0.118750
vt 0.588794 0.118750
vt 0.602904 0.000000
vt 1.000000 0.000000
vt 0.000000 0.253013
vt 0.000000 0.357013
vt 1.000000 0.000000
vt 1.000000 0.357013
vt 0.000000 0.000000
vt 0.000000 1.000000
vt 1.000000 0.000000
vt 0.656035 1.000000
vt 0.000000 0.000000
vt 1.000000 1.000000
vt 1.000000 0.000000
vt 1.000000 0.000000
vt 0.656035 1.000000
vt 0.000000 1.000000
vt 0.996538 0.119497
vt 0.593775 0.119497
vt 0.593775 0.297656
vt 0.996538 0.297656
vt 0.593775 0.522863
vt 0.996538 0.522863
vt 0.593775 0.821914
vt 0.996538 0.821914
vn 0.000000 1.000000 0.000000
vn 0.000000 1.000000 0.000000
vn 0.000000 1.000000 0.000000
vn 0.000000 1.000000 0.000000
vn -0.202909 0.561846 -0.801970
vn -0.040772 0.573305 -0.818327
vn -0.040772 0.573305 -0.818327
vn -0.202909 0.561846 -0.801970
vn -1.000000 0.000000 0.000000
vn -1.000000 0.000000 0.000000
vn -1.000000 0.000000 0.000000
vn -1.000000 0.000000 0.000000
vn -0.045064 0.573200 0.818176
vn 0.000000 0.573783 0.819008
vn 0.000000 0.573783 0.819008
vn -0.045064 0.573200 0.818176
vn 1.000000 0.000000 0.000000
vn 1.000000 0.000000 0.000000
vn 1.000000 0.000000 0.000000
vn 1.000000 0.000000 0.000000
vn -0.023158 0.573629 -0.818788
vn -0.023158 0.573629 -0.818788
vn -0.000000 1.000000 0.000000
vn -0.000000 1.000000 0.000000
vn -0.133068 0.568680 0.811724
vn -0.133068 0.568680 0.811724
vn -0.067579 0.572471 -0.817135
vn -0.067579 0.572471 -0.817135
vn 0.000000 1.000000 0.000000
vn 0.000000 1.000000 0.000000
vn -0.023442 0.573625 0.818783
vn -0.023442 0.573625 0.818783
vn 0.152949 0.567031 -0.809371
vn 0.269893 0.552490 -0.788615
vn 0.269893 0.552490 -0.788615
vn 0.152949 0.567031 -0.809371
vn 0.000000 1.000000 0.000000
vn 0.000000 1.000000 0.000000
vn 0.000000 1.000000 0.000000
vn 0.000000 1.000000 0.000000
vn 0.355539 0.536292 0.765495
vn 0.244192 0.556412 0.794214
vn 0.244192 0.556412 0.794214
vn 0.355539 0.536292 0.765495
vn 0.000000 1.000000 0.000000
vn 0.000000 1.000000 0.000000
vn 0.000000 1.000000 0.000000
vn 0.000000 1.000000 0.000000
vn 0.000000 1.000000 0.000000
vn 0.000000 1.000000 0.000000
vn 0.000000 1.000000 -0.000000
vn 0.000000 1.000000 -0.000000
vn 0.000000 1.000000 -0.000000
vn 0.000000 1.000000 0.000000
vn 0.000000 1.000000 0.000000
vn 0.000000 1.000000 0.000000
vn 0.000000 1.000000 0.000000
vn 0.000000 1.000000 0.000000
vn 0.000000 1.000000 0.000000
vn 0.000000 1.000000 -0.000000
vn 0.000000 1.000000 -0.000000
vn 0.000000 1.000000 -0.000000
s 1
g polySurface1
usemtl lambert2SG
f 5/1/1 10/22/2 11/25/3 8/4/4
s 2
f 1/5/5 9/21/6 10/23/7 5/8/8
s off
f 2/9/9 4/10/10 7/11/11 6/12/12
s 4
f 12/68/13 3/14/14 8/15/15 11/67/16
s off
f 3/17/17 1/18/18 5/19/19 8/20/20
s 2
f 9/21/6 13/27/21 14/29/22 10/23/7
s 1
f 11/25/3 10/22/2 14/28/23 15/31/24
s 4
f 16/66/25 12/26/13 11/24/16 15/65/26
s 2
f 13/27/21 17/33/27 18/35/28 14/29/22
s 1
f 15/31/24 14/28/23 18/34/29 19/37/30
s 4
f 20/64/31 16/32/25 15/30/26 19/63/32
s 2
f 24/44/33 2/6/34 6/7/35 23/43/36
s 1
f 22/41/37 23/42/38 6/2/39 7/3/40
s 4
f 4/13/41 21/39/42 22/62/43 7/16/44
f 21/61/42 20/38/31 19/36/32 22/40/43
s 1
f 19/37/30 18/34/29 23/42/38 22/41/37
s 2
f 17/33/27 24/44/33 23/43/36 18/35/28
s off
f 9/45/45 1/46/46 13/47/47
f 27/48/48 26/49/49 28/50/50
f 25/51/51 26/49/52 27/48/53
f 31/52/54 30/57/55 33/59/56
f 29/55/57 30/53/58 31/60/59
f 33/54/60 30/58/61 32/56/62
