# This file uses centimeters as units for non-parametric coordinates.

mtllib des_trench_ns.mtl
g default
v 0.500000 -0.000000 0.500000
v 0.500000 -0.000000 -0.500000
v -0.500000 0.000000 0.500000
v -0.500000 0.000000 -0.500000
v 0.329242 -0.243737 0.500000
v 0.329242 -0.243737 -0.500000
v -0.329242 -0.243737 -0.500000
v -0.329242 -0.243737 0.500000
v 0.454773 -0.000000 0.321248
v 0.284015 -0.243737 0.321248
v -0.329242 -0.243737 0.321248
v -0.500000 0.000000 0.321248
v 0.500000 -0.000000 0.021035
v 0.329242 -0.243737 0.021035
v -0.296104 -0.243737 0.021035
v -0.466862 0.000000 0.021035
v 0.452876 -0.000000 -0.205046
v 0.282118 -0.243737 -0.205046
v -0.246793 -0.243737 -0.205046
v -0.417551 0.000000 -0.205046
v -0.446075 0.000000 -0.383896
v -0.275317 -0.243737 -0.383896
v 0.289507 -0.243737 -0.383896
v 0.460265 -0.000000 -0.383896
v 0.500000 -0.000000 0.021035
v 0.500000 -0.000000 -0.500000
v 0.452876 -0.000000 -0.205046
v 0.460265 -0.000000 -0.383896
v -0.500000 0.000000 0.321248
v -0.466862 0.000000 0.021035
v -0.500000 0.000000 -0.500000
v -0.417551 0.000000 -0.205046
v -0.446075 0.000000 -0.383896
vt -0.832337 0.997243
vt -0.832337 0.001110
vt -0.176400 0.001110
vt -0.176400 0.997243
vt 0.588794 1.007338
vt 0.588794 0.002030
vt 0.995266 0.002030
vt 0.995266 1.007338
vt 0.996538 0.003842
vt 0.996538 0.999975
vt 0.593775 0.999975
vt 0.593775 0.003842
vt 0.588794 0.827637
vt -0.832337 0.819182
vt 0.995267 0.827637
vt 0.593775 0.821914
vt -0.176400 0.819182
vt 0.996538 0.821914
vt 0.588794 0.525831
vt -0.832337 0.520130
vt 0.995267 0.525831
vt 0.593775 0.522863
vt -0.176400 0.520130
vt 0.996538 0.522863
vt 0.588794 0.298550
vt -0.832337 0.294924
vt 0.995266 0.298550
vt 0.593775 0.297656
vt -0.176400 0.294924
vt 0.996538 0.297656
vt 0.996538 0.119497
vt 0.593775 0.119497
vt -0.176400 0.116765
vt -0.832337 0.116765
vt 0.995266 0.118750
vt 0.588794 0.118750
vt 0.602904 0.000000
vt 1.000000 0.000000
vt 0.000000 0.253013
vt 0.000000 0.357013
vt 1.000000 0.000000
vt 1.000000 0.357013
vt 0.000000 0.000000
vt 0.000000 1.000000
vt 1.000000 0.000000
vt 0.656035 1.000000
vt 0.000000 0.000000
vt 1.000000 1.000000
vt 1.000000 0.000000
vt 1.000000 0.000000
vt 0.656035 1.000000
vt 0.000000 1.000000
vt 0.996538 0.119497
vt 0.593775 0.119497
vt 0.593775 0.297656
vt 0.996538 0.297656
vt 0.593775 0.522863
vt 0.996538 0.522863
vt 0.593775 0.821914
vt 0.996538 0.821914
vn 0.000000 1.000000 0.000000
vn 0.000000 1.000000 -0.000000
vn 0.000000 1.000000 -0.000000
vn 0.000000 1.000000 0.000000
vn -0.801970 0.561846 0.202909
vn -0.818327 0.573305 0.040772
vn -0.818327 0.573305 0.040772
vn -0.801970 0.561846 0.202909
vn 0.818176 0.573200 0.045064
vn 0.819008 0.573783 0.000000
vn 0.819008 0.573783 0.000000
vn 0.818176 0.573200 0.045064
vn -0.818788 0.573629 0.023158
vn -0.818788 0.573629 0.023158
vn -0.000000 1.000000 -0.000000
vn -0.000000 1.000000 -0.000000
vn 0.811724 0.568680 0.133068
vn 0.811724 0.568680 0.133068
vn -0.817135 0.572471 0.067579
vn -0.817135 0.572471 0.067579
vn -0.000000 1.000000 0.000000
vn -0.000000 1.000000 0.000000
vn 0.818783 0.573625 0.023442
vn 0.818783 0.573625 0.023442
vn -0.809371 0.567031 -0.152949
vn -0.788615 0.552490 -0.269893
vn -0.788615 0.552490 -0.269893
vn -0.809371 0.567031 -0.152949
vn 0.000000 1.000000 0.000000
vn 0.000000 1.000000 0.000000
vn 0.000000 1.000000 -0.000000
vn 0.000000 1.000000 -0.000000
vn 0.765495 0.536292 -0.355539
vn 0.794214 0.556412 -0.244192
vn 0.794214 0.556412 -0.244192
vn 0.765495 0.536292 -0.355539
vn 0.000000 1.000000 0.000000
vn 0.000000 1.000000 0.000000
vn 0.000000 1.000000 0.000000
vn 0.000000 1.000000 0.000000
vn 0.000000 1.000000 0.000000
vn 0.000000 1.000000 0.000000
vn 0.000000 1.000000 0.000000
vn 0.000000 1.000000 0.000000
vn 0.000000 1.000000 0.000000
vn 0.000000 1.000000 0.000000
vn 0.000000 1.000000 0.000000
vn 0.000000 1.000000 0.000000
vn 0.000000 1.000000 0.000000
vn 0.000000 1.000000 0.000000
vn 0.000000 1.000000 0.000000
vn 0.000000 1.000000 0.000000
vn 0.000000 1.000000 0.000000
vn 0.000000 1.000000 0.000000
s 1
g polySurface1
usemtl lambert2SG
f 5/1/1 10/14/2 11/17/3 8/4/4
s 2
f 1/5/5 9/13/6 10/15/7 5/8/8
s 3
f 12/60/9 3/10/10 8/11/11 11/59/12
s 2
f 9/13/6 13/19/13 14/21/14 10/15/7
s 1
f 11/17/3 10/14/2 14/20/15 15/23/16
s 3
f 16/58/17 12/18/9 11/16/12 15/57/18
s 2
f 13/19/13 17/25/19 18/27/20 14/21/14
s 1
f 15/23/16 14/20/15 18/26/21 19/29/22
s 3
f 20/56/23 16/24/17 15/22/18 19/55/24
s 2
f 24/36/25 2/6/26 6/7/27 23/35/28
s 1
f 22/33/29 23/34/30 6/2/31 7/3/32
s 3
f 4/9/33 21/31/34 22/54/35 7/12/36
f 21/53/34 20/30/23 19/28/24 22/32/35
s 1
f 19/29/22 18/26/21 23/34/30 22/33/29
s 2
f 17/25/19 24/36/25 23/35/28 18/27/20
s off
f 9/37/37 1/38/38 13/39/39
f 27/40/40 26/41/41 28/42/42
f 25/43/43 26/41/44 27/40/45
f 31/44/46 30/49/47 33/51/48
f 29/47/49 30/45/50 31/52/51
f 33/46/52 30/50/53 32/48/54
