# This file uses centimeters as units for non-parametric coordinates.

mtllib des_trench_end_e.mtl
g default
v 0.500000 -0.000000 0.500000
v 0.400000 -0.000000 0.500000
v 0.378174 -0.011440 0.379593
v 0.500000 -0.000000 0.400000
v 0.300000 0.000000 0.500000
v 0.294173 -0.048618 0.381473
v 0.200000 0.000000 0.500000
v 0.208399 -0.109829 0.411404
v 0.100000 -0.000000 0.500000
v 0.117680 -0.144336 0.456587
v -0.000000 0.000000 0.500000
v 0.034103 -0.134446 0.479803
v -0.100000 -0.000000 0.500000
v -0.067300 -0.126417 0.479535
v -0.200000 -0.000000 0.500000
v -0.187790 -0.126255 0.455069
v -0.300000 0.000000 0.500000
v -0.303775 -0.123560 0.450136
v -0.400000 -0.000000 0.500000
v -0.416461 -0.108820 0.449082
v 0.372219 -0.019965 0.295098
v 0.500000 -0.000000 0.300000
v 0.298520 -0.059986 0.305699
v 0.219130 -0.117203 0.337218
v 0.137699 -0.181501 0.381498
v 0.057009 -0.203980 0.403652
v -0.050514 -0.249962 0.394646
v -0.181907 -0.310297 0.376585
v -0.307334 -0.321437 0.386426
v -0.424323 -0.266382 0.379263
v 0.377855 -0.028363 0.202693
v 0.500000 -0.000000 0.200000
v 0.306058 -0.078566 0.215021
v 0.223466 -0.154299 0.242073
v 0.132514 -0.224522 0.272830
v 0.040897 -0.280665 0.269445
v -0.062212 -0.377408 0.262742
v -0.174524 -0.471492 0.279047
v -0.307227 -0.494224 0.286421
v -0.434612 -0.462001 0.291117
v 0.409236 -0.072532 0.108325
v 0.500000 -0.000000 0.100000
v 0.335725 -0.174638 0.115962
v 0.200000 -0.283852 0.100000
v 0.100324 -0.321193 0.100849
v 0.006896 -0.364609 0.112066
v -0.075695 -0.454379 0.120720
v -0.181479 -0.526403 0.115622
v -0.304007 -0.547495 0.109291
v -0.425055 -0.535913 0.115194
v 0.442213 -0.102144 0.001230
v 0.500000 -0.000000 0.000000
v 0.324692 -0.224618 0.002102
v 0.200226 -0.335638 0.000045
v 0.100197 -0.373859 0.000106
v 0.001688 -0.392339 -0.000153
v -0.094662 -0.433798 -0.010996
v -0.199358 -0.469598 -0.035558
v -0.305772 -0.474607 -0.053006
v -0.409337 -0.472934 -0.055019
v 0.438257 -0.092087 -0.112244
v 0.500000 0.000000 -0.100000
v 0.348266 -0.199410 -0.115702
v 0.205520 -0.320961 -0.103933
v 0.102495 -0.367054 -0.104258
v -0.000268 -0.386553 -0.107277
v -0.107921 -0.413239 -0.131709
v -0.210487 -0.394117 -0.151859
v -0.307207 -0.367099 -0.162390
v -0.401128 -0.360232 -0.164406
v 0.401887 -0.054267 -0.210036
v 0.500000 0.000000 -0.200000
v 0.330079 -0.117657 -0.222247
v 0.202290 -0.191205 -0.213158
v 0.105322 -0.273632 -0.230052
v -0.000597 -0.310169 -0.234701
v -0.111708 -0.300627 -0.235986
v -0.212760 -0.241665 -0.255925
v -0.310805 -0.217287 -0.291788
v -0.401624 -0.216848 -0.298430
v 0.378674 -0.014056 -0.296444
v 0.500000 0.000000 -0.300000
v 0.292385 -0.036115 -0.296207
v 0.188245 -0.069074 -0.296214
v 0.097044 -0.109299 -0.315772
v -0.004060 -0.133391 -0.341330
v -0.112531 -0.139151 -0.362722
v -0.204256 -0.133474 -0.371375
v -0.299975 -0.150963 -0.380970
v -0.397439 -0.165428 -0.380476
v 0.381088 0.004402 -0.382375
v 0.500000 0.000000 -0.400000
v 0.288203 -0.006240 -0.376594
v 0.188842 -0.022867 -0.377059
v 0.098306 -0.045019 -0.392867
v -0.003827 -0.067432 -0.419964
v -0.105892 -0.082186 -0.433181
v -0.195970 -0.091100 -0.433847
v -0.292440 -0.102925 -0.439221
v -0.394838 -0.113721 -0.443398
v 0.400000 0.000000 -0.500000
v 0.500000 0.000000 -0.500000
v 0.300000 0.000000 -0.500000
v 0.200000 -0.000000 -0.500000
v 0.100000 -0.000000 -0.500000
v -0.000000 0.000000 -0.500000
v -0.100000 0.000000 -0.500000
v -0.200000 -0.000000 -0.500000
v -0.300000 -0.000000 -0.500000
v -0.400000 -0.000000 -0.500000
v -0.500000 -0.091583 0.438427
v -0.500000 -0.000000 0.500000
v -0.500000 -0.185707 0.369688
v -0.500000 -0.394177 0.288644
v -0.500000 -0.495401 0.123266
v -0.500000 -0.464798 -0.042702
v -0.500000 -0.369360 -0.163334
v -0.500000 -0.223650 -0.301076
v -0.500000 -0.168169 -0.384232
v -0.500000 -0.116575 -0.446206
v -0.500000 0.000000 -0.500000
vt 1.000000 0.000000
vt 1.000000 0.100000
vt 0.878174 0.120407
vt 0.900000 0.000000
vt 0.794173 0.118527
vt 0.800000 0.000000
vt 0.708399 0.088596
vt 0.700000 0.000000
vt 0.617680 0.043413
vt 0.600000 0.000000
vt 0.534103 0.020197
vt 0.500000 0.000000
vt 0.432700 0.020465
vt 0.400000 0.000000
vt 0.312210 0.044931
vt 0.300000 0.000000
vt 0.196224 0.049864
vt 0.200000 0.000000
vt 0.083539 0.050918
vt 0.100000 0.000000
vt -0.000000 0.061573
vt -0.000000 0.000000
vt 1.000000 0.200000
vt 0.872219 0.204902
vt 0.798520 0.194301
vt 0.719130 0.162782
vt 0.637699 0.118502
vt 0.557009 0.096348
vt 0.449486 0.105354
vt 0.318093 0.123415
vt 0.192666 0.113574
vt 0.075677 0.120737
vt 0.000000 0.130312
vt 1.000000 0.300000
vt 0.877855 0.297307
vt 0.806058 0.284979
vt 0.723466 0.257927
vt 0.632514 0.227170
vt 0.540897 0.230555
vt 0.437788 0.237258
vt 0.325476 0.220953
vt 0.192773 0.213579
vt 0.065388 0.208883
vt 0.000000 0.211356
vt 1.000000 0.400000
vt 0.909235 0.391675
vt 0.835725 0.384038
vt 0.700000 0.400000
vt 0.600324 0.399151
vt 0.506896 0.387934
vt 0.424305 0.379280
vt 0.318521 0.384378
vt 0.195993 0.390709
vt 0.074945 0.384806
vt 0.000000 0.376734
vt 1.000000 0.500000
vt 0.942213 0.498770
vt 0.824692 0.497898
vt 0.700226 0.499955
vt 0.600197 0.499894
vt 0.501688 0.500153
vt 0.405338 0.510996
vt 0.300642 0.535558
vt 0.194228 0.553006
vt 0.090663 0.555019
vt 0.000000 0.542702
vt 1.000000 0.600000
vt 0.938257 0.612244
vt 0.848266 0.615702
vt 0.705520 0.603932
vt 0.602495 0.604258
vt 0.499732 0.607277
vt 0.392079 0.631709
vt 0.289513 0.651859
vt 0.192793 0.662390
vt 0.098872 0.664406
vt 0.000000 0.663334
vt 1.000000 0.700000
vt 0.901887 0.710036
vt 0.830079 0.722247
vt 0.702290 0.713158
vt 0.605322 0.730052
vt 0.499403 0.734701
vt 0.388292 0.735986
vt 0.287239 0.755925
vt 0.189194 0.791788
vt 0.098376 0.798430
vt 0.000000 0.801076
vt 1.000000 0.800000
vt 0.878673 0.796444
vt 0.792384 0.796207
vt 0.688245 0.796214
vt 0.597044 0.815772
vt 0.495940 0.841329
vt 0.387469 0.862722
vt 0.295744 0.871375
vt 0.200024 0.880970
vt 0.102561 0.880476
vt -0.000000 0.884232
vt 1.000000 0.900000
vt 0.881088 0.882375
vt 0.788203 0.876594
vt 0.688842 0.877059
vt 0.598306 0.892867
vt 0.496173 0.919964
vt 0.394108 0.933180
vt 0.304030 0.933846
vt 0.207560 0.939221
vt 0.105162 0.943398
vt -0.000000 0.946206
vt 1.000000 1.000000
vt 0.900000 1.000000
vt 0.799999 1.000000
vt 0.700000 1.000000
vt 0.600000 1.000000
vt 0.500000 1.000000
vt 0.400000 1.000000
vt 0.300000 1.000000
vt 0.200000 1.000000
vt 0.100000 1.000000
vt -0.000000 1.000000
vn -0.047124 0.997777 -0.047124
vn -0.083887 0.995479 -0.044560
vn -0.204768 0.973191 -0.104733
vn -0.122088 0.983525 -0.133316
vn -0.411228 0.869673 -0.273059
vn -0.273445 0.872024 -0.405958
vn -0.484836 0.707794 -0.513772
vn -0.317043 0.597094 -0.736860
vn -0.328033 0.571856 -0.751914
vn -0.198531 0.313872 -0.928477
vn -0.108110 0.461749 -0.880398
vn -0.052456 0.178913 -0.982466
vn 0.018024 0.389361 -0.920909
vn 0.057170 0.211974 -0.975602
vn 0.034484 0.361959 -0.931556
vn 0.066250 0.311708 -0.947866
vn 0.041180 0.361701 -0.931384
vn 0.028869 0.375469 -0.926385
vn 0.161489 0.419308 -0.893366
vn 0.063973 0.439038 -0.896188
vn 0.000000 0.459221 -0.888322
vn 0.000000 0.556876 -0.830596
vn -0.154972 0.986886 -0.045171
vn -0.329133 0.939896 -0.090920
vn -0.569852 0.803828 -0.170671
vn -0.636426 0.727474 -0.256404
vn -0.486869 0.773238 -0.406277
vn -0.302439 0.756718 -0.579576
vn -0.223436 0.624080 -0.748732
vn -0.122750 0.485196 -0.865747
vn 0.038206 0.414393 -0.909296
vn 0.279850 0.395798 -0.874659
vn 0.000000 0.640339 -0.768093
vn -0.311166 0.936942 -0.159108
vn -0.467347 0.839824 -0.276192
vn -0.609814 0.682181 -0.403430
vn -0.599727 0.696639 -0.393727
vn -0.511537 0.777919 -0.364927
vn -0.509665 0.772627 -0.378534
vn -0.539110 0.706683 -0.458213
vn -0.331738 0.744434 -0.579455
vn 0.008723 0.766580 -0.642090
vn 0.354499 0.667489 -0.654819
vn 0.000000 0.734135 -0.679003
vn -0.599958 0.762457 -0.242302
vn -0.651485 0.675367 -0.345611
vn -0.635144 0.628238 -0.449344
vn -0.495791 0.741157 -0.452634
vn -0.396303 0.828611 -0.395408
vn -0.523035 0.819874 -0.232897
vn -0.603769 0.795145 -0.056639
vn -0.368523 0.929289 0.024769
vn -0.025727 0.998973 0.037295
vn 0.291957 0.956343 -0.012989
vn 0.000000 0.514177 -0.857684
vn -0.809763 0.580528 -0.085277
vn -0.780200 0.616262 -0.107283
vn -0.695504 0.706046 -0.133316
vn -0.508919 0.845307 -0.162658
vn -0.308227 0.937429 -0.161936
vn -0.365309 0.930485 -0.027319
vn -0.397060 0.892261 0.214973
vn -0.197596 0.879465 0.433010
vn -0.017706 0.844058 0.535960
vn 0.108802 0.845521 0.522739
vn 0.000000 0.756283 -0.654245
vn -0.772531 0.616893 0.150459
vn -0.746841 0.629042 0.215719
vn -0.644187 0.689974 0.330089
vn -0.504349 0.779878 0.370706
vn -0.333487 0.879930 0.338394
vn -0.231575 0.906772 0.352331
vn -0.142729 0.849962 0.507141
vn -0.026572 0.747372 0.663874
vn -0.005621 0.692564 0.721334
vn -0.002485 0.700103 0.714037
vn 0.000000 1.000000 0.000000
vn -0.495822 0.830849 0.252686
vn -0.523548 0.737265 0.427010
vn -0.427420 0.613210 0.664294
vn -0.386801 0.572509 0.722923
vn -0.357899 0.602033 0.713768
vn -0.180311 0.666111 0.723729
vn -0.003610 0.660019 0.751240
vn 0.011308 0.668061 0.744020
vn -0.059999 0.722253 0.689022
vn -0.051965 0.759714 0.648178
vn 0.000000 0.846199 0.532867
vn -0.165192 0.971607 0.169384
vn -0.231857 0.915984 0.327438
vn -0.261003 0.788875 0.556375
vn -0.321088 0.681961 0.657138
vn -0.353610 0.611113 0.708167
vn -0.212541 0.642431 0.736280
vn -0.046705 0.708322 0.704343
vn -0.056019 0.763419 0.643469
vn -0.119701 0.790281 0.600938
vn -0.071807 0.802752 0.591974
vn 0.000000 0.752240 0.658889
vn -0.006361 0.999182 0.039946
vn -0.058366 0.994216 0.090151
vn -0.131400 0.969868 0.205157
vn -0.203961 0.917627 0.341118
vn -0.250173 0.837031 0.486613
vn -0.191163 0.765610 0.614246
vn -0.088151 0.724112 0.684025
vn -0.075787 0.699163 0.710935
vn -0.095666 0.660516 0.744692
vn -0.054127 0.625809 0.778096
vn 0.000000 0.644211 0.764848
vn 0.018603 0.999654 -0.018604
vn -0.018247 0.999793 -0.009009
vn -0.069079 0.996091 0.055044
vn -0.108577 0.975330 0.192204
vn -0.148783 0.907697 0.392365
vn -0.130637 0.780746 0.611040
vn -0.064518 0.656182 0.751840
vn -0.043526 0.576969 0.815605
vn -0.049586 0.509560 0.859005
vn -0.030901 0.453073 0.890938
vn 0.000000 0.514177 0.857684
s 1
g polySurface3 polySurface2 trench2
usemtl lambert2SG
f 1/1/1 4/2/2 3/3/3 2/4/4
f 2/4/4 3/3/3 6/5/5 5/6/6
f 5/6/6 6/5/5 8/7/7 7/8/8
f 7/8/8 8/7/7 10/9/9 9/10/10
f 9/10/10 10/9/9 12/11/11 11/12/12
f 11/12/12 12/11/11 14/13/13 13/14/14
f 13/14/14 14/13/13 16/15/15 15/16/16
f 15/16/16 16/15/15 18/17/17 17/18/18
f 17/18/18 18/17/17 20/19/19 19/20/20
f 19/20/20 20/19/19 111/21/21 112/22/22
f 4/2/2 22/23/23 21/24/24 3/3/3
f 3/3/3 21/24/24 23/25/25 6/5/5
f 6/5/5 23/25/25 24/26/26 8/7/7
f 8/7/7 24/26/26 25/27/27 10/9/9
f 10/9/9 25/27/27 26/28/28 12/11/11
f 12/11/11 26/28/28 27/29/29 14/13/13
f 14/13/13 27/29/29 28/30/30 16/15/15
f 16/15/15 28/30/30 29/31/31 18/17/17
f 18/17/17 29/31/31 30/32/32 20/19/19
f 20/19/19 30/32/32 113/33/33 111/21/21
f 22/23/23 32/34/34 31/35/35 21/24/24
f 21/24/24 31/35/35 33/36/36 23/25/25
f 23/25/25 33/36/36 34/37/37 24/26/26
f 24/26/26 34/37/37 35/38/38 25/27/27
f 25/27/27 35/38/38 36/39/39 26/28/28
f 26/28/28 36/39/39 37/40/40 27/29/29
f 27/29/29 37/40/40 38/41/41 28/30/30
f 28/30/30 38/41/41 39/42/42 29/31/31
f 29/31/31 39/42/42 40/43/43 30/32/32
f 30/32/32 40/43/43 114/44/44 113/33/33
f 32/34/34 42/45/45 41/46/46 31/35/35
f 31/35/35 41/46/46 43/47/47 33/36/36
f 33/36/36 43/47/47 44/48/48 34/37/37
f 34/37/37 44/48/48 45/49/49 35/38/38
f 35/38/38 45/49/49 46/50/50 36/39/39
f 36/39/39 46/50/50 47/51/51 37/40/40
f 37/40/40 47/51/51 48/52/52 38/41/41
f 38/41/41 48/52/52 49/53/53 39/42/42
f 39/42/42 49/53/53 50/54/54 40/43/43
f 40/43/43 50/54/54 115/55/55 114/44/44
f 42/45/45 52/56/56 51/57/57 41/46/46
f 41/46/46 51/57/57 53/58/58 43/47/47
f 43/47/47 53/58/58 54/59/59 44/48/48
f 44/48/48 54/59/59 55/60/60 45/49/49
f 45/49/49 55/60/60 56/61/61 46/50/50
f 46/50/50 56/61/61 57/62/62 47/51/51
f 47/51/51 57/62/62 58/63/63 48/52/52
f 48/52/52 58/63/63 59/64/64 49/53/53
f 49/53/53 59/64/64 60/65/65 50/54/54
f 50/54/54 60/65/65 116/66/66 115/55/55
f 52/56/56 62/67/67 61/68/68 51/57/57
f 51/57/57 61/68/68 63/69/69 53/58/58
f 53/58/58 63/69/69 64/70/70 54/59/59
f 54/59/59 64/70/70 65/71/71 55/60/60
f 55/60/60 65/71/71 66/72/72 56/61/61
f 56/61/61 66/72/72 67/73/73 57/62/62
f 57/62/62 67/73/73 68/74/74 58/63/63
f 58/63/63 68/74/74 69/75/75 59/64/64
f 59/64/64 69/75/75 70/76/76 60/65/65
f 60/65/65 70/76/76 117/77/77 116/66/66
f 62/67/67 72/78/78 71/79/79 61/68/68
f 61/68/68 71/79/79 73/80/80 63/69/69
f 63/69/69 73/80/80 74/81/81 64/70/70
f 64/70/70 74/81/81 75/82/82 65/71/71
f 65/71/71 75/82/82 76/83/83 66/72/72
f 66/72/72 76/83/83 77/84/84 67/73/73
f 67/73/73 77/84/84 78/85/85 68/74/74
f 68/74/74 78/85/85 79/86/86 69/75/75
f 69/75/75 79/86/86 80/87/87 70/76/76
f 70/76/76 80/87/87 118/88/88 117/77/77
f 72/78/78 82/89/89 81/90/90 71/79/79
f 71/79/79 81/90/90 83/91/91 73/80/80
f 73/80/80 83/91/91 84/92/92 74/81/81
f 74/81/81 84/92/92 85/93/93 75/82/82
f 75/82/82 85/93/93 86/94/94 76/83/83
f 76/83/83 86/94/94 87/95/95 77/84/84
f 77/84/84 87/95/95 88/96/96 78/85/85
f 78/85/85 88/96/96 89/97/97 79/86/86
f 79/86/86 89/97/97 90/98/98 80/87/87
f 80/87/87 90/98/98 119/99/99 118/88/88
f 82/89/89 92/100/100 91/101/101 81/90/90
f 81/90/90 91/101/101 93/102/102 83/91/91
f 83/91/91 93/102/102 94/103/103 84/92/92
f 84/92/92 94/103/103 95/104/104 85/93/93
f 85/93/93 95/104/104 96/105/105 86/94/94
f 86/94/94 96/105/105 97/106/106 87/95/95
f 87/95/95 97/106/106 98/107/107 88/96/96
f 88/96/96 98/107/107 99/108/108 89/97/97
f 89/97/97 99/108/108 100/109/109 90/98/98
f 90/98/98 100/109/109 120/110/110 119/99/99
f 92/100/100 102/111/111 101/112/112 91/101/101
f 91/101/101 101/112/112 103/113/113 93/102/102
f 93/102/102 103/113/113 104/114/114 94/103/103
f 94/103/103 104/114/114 105/115/115 95/104/104
f 95/104/104 105/115/115 106/116/116 96/105/105
f 96/105/105 106/116/116 107/117/117 97/106/106
f 97/106/106 107/117/117 108/118/118 98/107/107
f 98/107/107 108/118/118 109/119/119 99/108/108
f 99/108/108 109/119/119 110/120/120 100/109/109
f 100/109/109 110/120/120 121/121/121 120/110/110
