# This file uses centimeters as units for non-parametric coordinates.

mtllib des_trench_end_w.mtl
g default
v 0.499507 -0.000000 -0.500000
v 0.499507 0.000000 0.500000
v 0.499507 -0.243737 -0.329242
v 0.499507 -0.243737 0.329242
v 0.320755 -0.000000 -0.454773
v 0.320755 -0.243737 -0.284015
v 0.320755 -0.243737 0.329242
v 0.320755 0.000000 0.500000
v 0.020542 -0.000000 -0.500000
v 0.020542 -0.243737 -0.329242
v -0.027437 -0.243430 0.288574
v -0.181246 -0.243430 -0.253493
v -0.203489 -0.243430 0.181802
v -0.229329 -0.243430 -0.148371
v 0.010329 -0.243737 -0.140883
v -0.251518 -0.243430 -0.024711
v -0.001120 -0.243737 0.070252
v -0.500000 -0.000000 0.500000
v -0.500000 -0.000000 0.333333
v -0.047384 -0.000000 0.436487
v -0.500000 -0.000000 0.166667
v -0.260151 -0.000000 0.240253
v -0.500000 0.000000 -0.000000
v -0.318772 0.000000 -0.038058
v -0.500000 0.000000 -0.166667
v -0.290229 0.000000 -0.228507
v -0.500000 0.000000 -0.333333
v -0.228378 0.000000 -0.390406
v -0.500000 0.000000 -0.500000
vt 0.797128 0.661276
vt 0.654926 0.625297
vt 0.654926 0.137434
vt 0.797128 0.137434
vt 0.797128 0.797119
vt 0.654926 0.761140
vt 0.407973 0.511431
vt 0.398865 0.343467
vt 0.654926 0.001591
vt 0.797128 0.001591
vt 0.416098 0.797119
vt 0.416098 0.661276
vt 0.217318 0.517388
vt 0.199666 0.419014
vt 0.377929 0.169786
vt 0.362060 0.052117
vt 0.218075 0.709934
vt 0.255570 0.601016
vt 0.237875 0.254727
vt 0.001992 0.001591
vt 0.001992 0.134179
vt 0.001992 0.664531
vt 0.001992 0.797119
vt 0.192799 0.208227
vt 0.001992 0.266767
vt 0.001992 0.531943
vt 0.168871 0.581139
vt 0.146164 0.429632
vt 0.001992 0.399355
vt 0.998008 0.281894
vt 0.998008 0.444727
vt 0.804353 0.483156
vt 0.804353 0.292512
vt 0.998008 0.659408
vt 0.804353 0.655952
vt 0.998008 0.130387
vt 0.804353 0.194137
vt 0.998008 0.001591
vt 0.804353 0.110510
vn 0.000000 1.000000 -0.000000
vn -0.000000 1.000000 0.000000
vn 0.000345 1.000000 -0.000428
vn 0.000000 1.000000 -0.000000
vn 0.202909 0.561846 0.801970
vn 0.040772 0.573305 0.818327
vn 0.040772 0.573305 0.818327
vn 0.202909 0.561846 0.801970
vn 0.060479 0.561407 -0.825327
vn 0.000000 0.573783 -0.819008
vn 0.000000 0.573783 -0.819008
vn 0.060479 0.561407 -0.825327
vn 0.103114 0.562802 0.820135
vn 0.103114 0.562802 0.820135
vn 0.000667 1.000000 0.000102
vn 0.000719 1.000000 0.000143
vn 0.001438 0.999999 0.000286
vn 0.001334 0.999999 0.000204
vn 0.000000 1.000000 -0.000000
vn 0.000000 1.000000 -0.000000
vn 0.000000 1.000000 -0.000000
vn 0.000838 1.000000 -0.000485
vn 0.001160 0.999999 -0.000328
vn 0.001062 0.999999 -0.001032
vn 0.001090 0.999999 -0.000780
vn -0.000000 1.000000 -0.000000
vn -0.000000 1.000000 -0.000000
vn -0.000000 1.000000 -0.000000
vn -0.000000 1.000000 -0.000000
vn -0.000000 1.000000 0.000000
vn -0.000000 1.000000 0.000000
vn 0.000000 1.000000 0.000000
vn 0.000000 1.000000 0.000000
vn 0.000000 1.000000 0.000000
vn 0.000000 1.000000 0.000000
vn 0.000000 1.000000 -0.000000
vn 0.000000 1.000000 -0.000000
vn 0.000000 1.000000 -0.000000
vn 0.000000 1.000000 -0.000000
vn 0.352924 0.485561 -0.799797
vn 0.352924 0.485561 -0.799797
vn 0.797887 0.346703 -0.493126
vn 0.797887 0.346703 -0.493126
vn 0.961441 0.273620 -0.027642
vn 0.961441 0.273620 -0.027642
vn 0.913038 0.317118 0.256510
vn 0.913038 0.317118 0.256510
vn 0.636557 0.470217 0.611303
vn 0.636557 0.470217 0.611303
s 1
g polySurface2
usemtl lambert2SG
f 3/1/1 6/2/2 7/3/3 4/4/4
s 2
f 1/5/5 5/6/6 6/2/7 3/1/8
f 8/9/9 2/10/10 4/4/11 7/3/12
f 5/6/6 9/11/13 10/12/14 6/2/7
s 1
f 15/7/15 6/2/2 10/12/16
f 15/7/15 10/12/16 12/18/17 14/13/18
s off
f 5/6/19 1/5/20 9/11/21
s 1
f 17/8/22 15/7/15 14/13/18 16/14/23
f 7/3/3 6/2/2 15/7/15 17/8/22
f 11/15/24 17/8/22 16/14/23 13/19/25
f 7/3/3 17/8/22 11/15/24
s 4
f 18/20/26 8/9/27 20/16/28 19/21/29
f 19/21/29 20/16/28 22/24/30 21/25/31
f 21/25/31 22/24/30 24/28/32 23/29/33
f 23/29/33 24/28/32 26/27/34 25/26/35
f 25/26/35 26/27/34 28/17/36 27/22/37
f 27/22/37 28/17/36 9/11/38 29/23/39
s 2
f 20/16/40 8/9/9 7/3/12 11/15/41
f 22/31/42 20/34/40 11/35/41 13/32/43
f 24/30/44 22/31/42 13/32/43 16/33/45
f 26/36/46 24/30/44 16/33/45 14/37/47
f 28/38/48 26/36/46 14/37/47 12/39/49
f 9/11/13 28/17/48 12/18/49 10/12/14
