# This file uses centimeters as units for non-parametric coordinates.

mtllib pwup_ammo.mtl
g default
v -0.250000 0.199990 -0.100000
v -0.150010 0.100000 -0.100000
v 0.150010 0.100000 -0.100000
v -0.112076 0.234126 -0.100000
v -0.060316 0.235543 -0.100000
v -0.008557 0.240467 -0.100000
v 0.043199 0.250076 -0.100000
v 0.094960 0.266090 -0.100000
v 0.129106 0.282230 -0.100000
v 0.250000 0.199990 -0.100000
v -0.183412 0.234126 -0.100000
v 0.146708 0.293282 -0.100000
v -0.250000 0.500010 -0.100000
v -0.183412 0.474649 -0.100000
v 0.186003 0.330134 -0.100000
v -0.132883 0.474649 -0.100000
v 0.198485 0.354387 -0.100000
v 0.250000 0.500010 -0.100000
v -0.112076 0.474649 -0.100000
v 0.182138 0.378972 -0.100000
v -0.060316 0.473152 -0.100000
v -0.008556 0.467785 -0.100000
v 0.043204 0.457003 -0.100000
v 0.094852 0.438419 -0.100000
v 0.119223 0.426361 -0.100000
v 0.146825 0.409530 -0.100000
v -0.150010 0.600000 -0.100000
v 0.150010 0.600000 -0.100000
v -0.132883 0.234126 -0.100000
v -0.250000 0.199990 0.100000
v -0.150010 0.100000 0.100000
v 0.150010 0.100000 0.100000
v -0.112076 0.234126 0.100000
v -0.060316 0.235543 0.100000
v -0.008557 0.240467 0.100000
v 0.043199 0.250076 0.100000
v 0.094960 0.266090 0.100000
v 0.129106 0.282230 0.100000
v 0.250000 0.199990 0.100000
v -0.183412 0.234126 0.100000
v 0.146708 0.293282 0.100000
v -0.250000 0.500010 0.100000
v -0.183412 0.474649 0.100000
v 0.186003 0.330134 0.100000
v -0.132883 0.474649 0.100000
v 0.198485 0.354387 0.100000
v 0.250000 0.500010 0.100000
v -0.112076 0.474649 0.100000
v 0.182138 0.378972 0.100000
v -0.060316 0.473152 0.100000
v -0.008556 0.467785 0.100000
v 0.043204 0.457003 0.100000
v 0.094852 0.438419 0.100000
v 0.119223 0.426361 0.100000
v 0.146825 0.409530 0.100000
v -0.150010 0.600000 0.100000
v 0.150010 0.600000 0.100000
v -0.132883 0.234126 0.100000
v -0.132883 0.474649 0.100000
v -0.132883 0.474649 -0.100000
v -0.132883 0.234126 -0.100000
v -0.132883 0.234126 0.100000
v -0.183412 0.234126 -0.100000
v -0.183412 0.234126 0.100000
v -0.183412 0.474649 -0.100000
v -0.183412 0.474649 0.100000
v -0.008556 0.467785 0.100000
v -0.008556 0.467785 -0.100000
v 0.043204 0.457003 -0.100000
v 0.043204 0.457003 0.100000
v 0.094852 0.438419 -0.100000
v 0.094852 0.438419 0.100000
v 0.119223 0.426361 -0.100000
v 0.119223 0.426361 0.100000
v 0.146825 0.409530 -0.100000
v 0.146825 0.409530 0.100000
v 0.182138 0.378972 -0.100000
v 0.182138 0.378972 0.100000
v 0.198485 0.354387 -0.100000
v 0.198485 0.354387 0.100000
v 0.186003 0.330134 -0.100000
v 0.186003 0.330134 0.100000
v 0.146708 0.293282 -0.100000
v 0.146708 0.293282 0.100000
v 0.129106 0.282230 -0.100000
v 0.129107 0.282230 0.100000
v 0.094960 0.266090 -0.100000
v 0.094960 0.266090 0.100000
v 0.043199 0.250076 -0.100000
v 0.043198 0.250076 0.100000
v -0.008557 0.240467 -0.100000
v -0.008558 0.240467 0.100000
v -0.060316 0.235543 -0.100000
v -0.060316 0.235543 0.100000
v -0.112076 0.234126 -0.100000
v -0.112076 0.234126 0.100000
v -0.112076 0.474649 -0.100000
v -0.112076 0.474649 0.100000
v -0.060316 0.473152 -0.100000
v -0.060316 0.473152 0.100000
v 0.236604 0.149995 -0.100000
v 0.200005 0.113396 -0.100000
v 0.200005 0.113396 0.100000
v 0.236604 0.149995 0.100000
v -0.200005 0.113396 -0.100000
v -0.236604 0.149995 -0.100000
v -0.236604 0.149995 0.100000
v -0.200005 0.113396 0.100000
v 0.200005 0.586604 -0.100000
v 0.236604 0.550005 -0.100000
v 0.236604 0.550005 0.100000
v 0.200005 0.586604 0.100000
v -0.236604 0.550005 -0.100000
v -0.200005 0.586604 -0.100000
v -0.200005 0.586604 0.100000
v -0.236604 0.550005 0.100000
vt 0.000000 0.119048
vt 0.285714 0.000000
vt 0.785714 0.000000
vt 0.142857 0.142857
vt 0.285714 0.142857
vt 0.428571 0.142857
vt 0.571429 0.142857
vt 0.714286 0.142857
vt 0.857143 0.142857
vt 1.000000 0.285714
vt 0.000000 0.285714
vt 0.142857 0.285714
vt 0.857143 0.285714
vt 0.000000 0.714286
vt 0.142857 0.428571
vt 0.857143 0.428571
vt 0.142857 0.571429
vt 0.857143 0.571429
vt 1.000000 0.714286
vt 0.142857 0.714286
vt 0.857143 0.714286
vt 0.142857 0.857143
vt 0.285714 0.857143
vt 0.428571 0.857143
vt 0.571429 0.857143
vt 0.714286 0.857143
vt 0.857143 0.857143
vt 0.285714 1.000000
vt 0.785714 1.000000
vt 0.142857 0.214286
vt 0.000000 0.119048
vt 0.285714 0.000000
vt 0.142857 0.142857
vt 0.285714 0.142857
vt 0.428571 0.142857
vt 0.785714 0.000000
vt 0.571429 0.142857
vt 0.714286 0.142857
vt 0.857143 0.142857
vt 1.000000 0.285714
vt 0.142857 0.214286
vt 0.857143 0.285714
vt 0.000000 0.285714
vt 0.142857 0.285714
vt 0.142857 0.428571
vt 0.000000 0.714286
vt 0.857143 0.428571
vt 0.142857 0.571429
vt 1.000000 0.714286
vt 0.857143 0.571429
vt 0.142857 0.714286
vt 0.857143 0.714286
vt 0.142857 0.857143
vt 0.857143 0.857143
vt 0.285714 1.000000
vt 0.285714 0.857143
vt 0.428571 0.857143
vt 0.571429 0.857143
vt 0.785714 1.000000
vt 0.714286 0.857143
vt 1.000000 1.000000
vt 1.000000 1.000000
vt 1.000000 0.000000
vt 1.000000 0.000000
vt 1.000000 0.000000
vt 1.000000 0.000000
vt 0.000000 0.000000
vt 0.000000 0.000000
vt 0.000000 0.000000
vt 0.000000 0.000000
vt 0.000000 1.000000
vt 0.000000 1.000000
vt 0.000000 1.000000
vt 0.000000 1.000000
vt 1.000000 1.000000
vt 1.000000 1.000000
vt 0.333333 0.971461
vt 0.333333 0.971461
vt 0.500000 0.926634
vt 0.500000 0.926635
vt 0.500000 0.926635
vt 0.500000 0.926635
vt 0.666667 0.850412
vt 0.666667 0.850412
vt 0.666667 0.850412
vt 0.666667 0.850412
vt 0.745097 0.800000
vt 0.745097 0.800000
vt 0.745097 0.800000
vt 0.745097 0.800000
vt 0.833332 0.728662
vt 0.833333 0.728662
vt 0.833334 0.728661
vt 0.833333 0.728662
vt 0.945404 0.600000
vt 0.945404 0.600000
vt 0.945404 0.600000
vt 0.945404 0.600000
vt 1.000000 0.499996
vt 1.000000 0.499996
vt 1.000000 0.499996
vt 1.000000 0.499996
vt 0.958938 0.400000
vt 0.958938 0.400000
vt 0.958938 0.400000
vt 0.958938 0.400000
vt 0.833333 0.245848
vt 0.833333 0.245848
vt 0.833333 0.245848
vt 0.833333 0.245848
vt 0.776600 0.200000
vt 0.776600 0.200000
vt 0.776600 0.200000
vt 0.776600 0.200000
vt 0.666667 0.132847
vt 0.666667 0.132847
vt 0.666667 0.132847
vt 0.666667 0.132847
vt 0.500000 0.066214
vt 0.500000 0.066214
vt 0.500000 0.066214
vt 0.500000 0.066214
vt 0.333333 0.026320
vt 0.333333 0.026320
vt 0.333333 0.026320
vt 0.333333 0.026320
vt 0.166667 0.005883
vt 0.166667 0.005883
vt 0.166666 0.005883
vt 0.166667 0.005883
vt -0.000000 -0.000000
vt -0.000000 -0.000000
vt 0.000000 0.000000
vt 0.000000 0.000000
vt 0.000000 1.000000
vt 0.000000 1.000000
vt 0.000000 1.000000
vt -0.000000 1.000000
vt 0.166667 0.993776
vt 0.166667 0.993776
vt 0.166667 0.993776
vt 0.166667 0.993776
vt 0.333333 0.971461
vt 0.333333 0.971461
vt 0.618302 0.725002
vt 0.600003 0.743302
vt 0.575005 0.750000
vt 0.625000 0.700005
vt 0.600002 0.006698
vt 0.618302 0.024998
vt 0.625000 0.049995
vt 0.575005 0.000000
vt 0.399997 0.743302
vt 0.381698 0.725003
vt 0.375000 0.700005
vt 0.424995 0.750000
vt 0.381698 0.024998
vt 0.399998 0.006698
vt 0.424995 0.000000
vt 0.375000 0.049995
vt 0.625000 0.549995
vt 0.575005 0.500000
vt 0.600002 0.506698
vt 0.618302 0.524997
vt 0.618302 0.225002
vt 0.600003 0.243302
vt 0.575005 0.250000
vt 0.625000 0.200005
vt 0.375000 0.549995
vt 0.381698 0.524997
vt 0.399998 0.506698
vt 0.424995 0.500000
vt 0.399997 0.243302
vt 0.381698 0.225002
vt 0.375000 0.200005
vt 0.424995 0.250000
vt 0.600003 1.000000
vt 0.575005 1.000000
vt 0.600002 0.750000
vt 0.618302 1.000000
vt 0.618302 0.750000
vt 0.625000 0.024997
vt 0.875000 0.024998
vt 0.875000 0.049995
vt 0.375000 0.024998
vt 0.125000 0.049995
vt 0.125000 0.024997
vt 0.399998 1.000000
vt 0.381698 1.000000
vt 0.381698 0.750000
vt 0.399998 0.750000
vt 0.424995 1.000000
vt 0.625000 0.225002
vt 0.875000 0.200005
vt 0.875000 0.225002
vt 0.600002 0.250000
vt 0.618302 0.250000
vt 0.618302 0.500000
vt 0.600003 0.500000
vt 0.399998 0.250000
vt 0.399998 0.500000
vt 0.381698 0.250000
vt 0.381698 0.500000
vt 0.375000 0.225002
vt 0.125000 0.225002
vt 0.125000 0.200005
vn 0.000000 -0.000001 -1.000000
vn 0.000000 -0.000000 -1.000000
vn -0.000000 0.000000 -1.000000
vn -0.000000 0.000000 -1.000000
vn 0.000000 0.000000 -1.000000
vn 0.000000 0.000000 -1.000000
vn -0.000000 0.000000 -1.000000
vn 0.000000 0.000000 -1.000000
vn -0.000000 0.000000 -1.000000
vn -0.000000 0.000000 -1.000000
vn 0.000001 -0.000001 -1.000000
vn -0.000000 0.000000 -1.000000
vn 0.000000 0.000000 -1.000000
vn 0.000000 -0.000000 -1.000000
vn 0.000000 -0.000001 -1.000000
vn 0.000000 0.000000 -1.000000
vn -0.000001 0.000000 -1.000000
vn 0.000000 0.000000 -1.000000
vn -0.000000 -0.000000 -1.000000
vn -0.000000 -0.000000 -1.000000
vn 0.000000 0.000000 -1.000000
vn -0.000000 -0.000000 -1.000000
vn -0.000000 -0.000001 -1.000000
vn -0.000000 -0.000000 -1.000000
vn 0.000000 -0.000000 -1.000000
vn -0.000000 0.000000 -1.000000
vn 0.000000 0.000000 -1.000000
vn -0.000000 -0.000000 -1.000000
vn -0.000001 -0.000000 -1.000000
vn -0.000000 -0.000000 -1.000000
vn 0.000000 0.000001 -1.000000
vn -0.000001 0.000001 1.000000
vn -0.000000 -0.000000 1.000000
vn -0.000000 0.000000 1.000000
vn 0.000000 -0.000000 1.000000
vn 0.000000 -0.000000 1.000000
vn 0.000000 -0.000000 1.000000
vn 0.000000 -0.000000 1.000000
vn 0.000000 -0.000000 1.000000
vn 0.000000 -0.000000 1.000000
vn 0.000000 -0.000000 1.000000
vn -0.000001 0.000001 1.000000
vn 0.000000 -0.000000 1.000000
vn -0.000000 -0.000000 1.000000
vn -0.000000 -0.000000 1.000000
vn 0.000000 0.000001 1.000000
vn -0.000000 -0.000000 1.000000
vn 0.000000 -0.000000 1.000000
vn -0.000001 -0.000000 1.000000
vn 0.000000 0.000000 1.000000
vn 0.000000 0.000000 1.000000
vn -0.000001 -0.000001 1.000000
vn 0.000000 0.000000 1.000000
vn 0.000000 0.000001 1.000000
vn 0.000000 0.000000 1.000000
vn -0.000000 0.000000 1.000000
vn -0.000000 -0.000000 1.000000
vn -0.000000 -0.000000 1.000000
vn 0.000000 0.000000 1.000000
vn 0.000000 0.000000 1.000000
vn 0.000000 0.000000 1.000000
vn 0.000000 -0.000001 1.000000
vn -0.707107 -0.707107 0.000000
vn -0.707107 -0.707107 0.000000
vn -0.707107 0.707107 0.000000
vn -0.707107 0.707107 0.000000
vn 0.000000 1.000000 0.000000
vn 0.000000 1.000000 0.000000
vn 1.000000 0.000000 0.000000
vn 1.000000 0.000000 0.000000
vn 1.000000 0.000000 0.000000
vn 1.000000 0.000000 0.000000
vn 0.000000 -1.000000 0.000000
vn 0.000000 -1.000000 0.000000
vn -0.153728 -0.988113 0.000000
vn -0.153728 -0.988113 0.000000
vn -0.271918 -0.962321 -0.000000
vn -0.271918 -0.962321 -0.000000
vn -0.391647 -0.920116 -0.000000
vn -0.391647 -0.920116 -0.000000
vn -0.482504 -0.875894 -0.000000
vn -0.482504 -0.875894 -0.000000
vn -0.589516 -0.807757 -0.000000
vn -0.589516 -0.807757 -0.000000
vn -0.750401 -0.660983 -0.000000
vn -0.750401 -0.660983 -0.000000
vn -0.832719 -0.553696 -0.000000
vn -0.832719 -0.553696 -0.000000
vn -0.889151 0.457614 -0.000000
vn -0.889151 0.457614 -0.000000
vn -0.798261 0.602312 0.000000
vn -0.798261 0.602312 0.000000
vn -0.610747 0.791826 0.000001
vn -0.610747 0.791826 0.000001
vn -0.480408 0.877045 0.000001
vn -0.480408 0.877045 0.000001
vn -0.362355 0.932040 0.000000
vn -0.362355 0.932040 0.000000
vn -0.239456 0.970907 -0.000000
vn -0.239456 0.970907 -0.000000
vn -0.138761 0.990326 -0.000000
vn -0.138761 0.990326 -0.000000
vn -0.061069 0.998134 0.000000
vn -0.061069 0.998134 0.000000
vn -0.027366 0.999625 0.000000
vn -0.027366 0.999625 0.000000
vn 1.000000 0.000000 -0.000002
vn 1.000000 0.000000 -0.000002
vn 1.000000 0.000000 -0.000002
vn 1.000000 0.000000 -0.000002
vn -0.028920 -0.999582 0.000000
vn -0.028920 -0.999582 0.000000
vn -0.066069 -0.997815 0.000000
vn -0.066069 -0.997815 0.000000
vn 0.000000 -0.000000 -1.000000
vn 0.000000 -0.000000 -1.000000
vn 0.000000 -0.000000 -1.000000
vn 0.000000 -0.000000 -1.000000
vn 0.000000 0.000000 1.000000
vn 0.000000 0.000000 1.000000
vn 0.000000 0.000000 1.000000
vn 0.000000 0.000000 1.000000
vn -0.000000 -0.000000 -1.000000
vn -0.000000 -0.000000 -1.000000
vn -0.000000 -0.000000 -1.000000
vn -0.000000 -0.000000 -1.000000
vn -0.000000 0.000000 1.000000
vn -0.000000 0.000000 1.000000
vn -0.000000 0.000000 1.000000
vn -0.000000 0.000000 1.000000
vn 0.000000 0.000000 -1.000000
vn 0.000000 0.000000 -1.000000
vn 0.000000 0.000000 -1.000000
vn 0.000000 0.000000 -1.000000
vn 0.000000 0.000000 1.000000
vn 0.000000 0.000000 1.000000
vn 0.000000 0.000000 1.000000
vn 0.000000 0.000000 1.000000
vn -0.000000 0.000000 -1.000000
vn -0.000000 0.000000 -1.000000
vn -0.000000 0.000000 -1.000000
vn -0.000000 0.000000 -1.000000
vn -0.000000 0.000000 1.000000
vn -0.000000 0.000000 1.000000
vn -0.000000 0.000000 1.000000
vn -0.000000 0.000000 1.000000
vn 0.500000 -0.866025 0.000000
vn 0.130526 -0.991445 0.000000
vn 0.130526 -0.991445 0.000000
vn 0.500000 -0.866025 0.000000
vn 0.866025 -0.500000 -0.000000
vn 0.866025 -0.500000 -0.000000
vn 0.991445 -0.130526 -0.000000
vn 0.991445 -0.130526 -0.000000
vn -0.866025 -0.500000 0.000000
vn -0.991445 -0.130526 0.000000
vn -0.991445 -0.130526 0.000000
vn -0.866025 -0.500000 0.000000
vn -0.500000 -0.866026 0.000000
vn -0.500000 -0.866026 0.000000
vn -0.130526 -0.991445 0.000000
vn -0.130526 -0.991445 0.000000
vn 0.866025 0.500000 0.000000
vn 0.991445 0.130526 0.000000
vn 0.991445 0.130526 0.000000
vn 0.866025 0.500000 0.000000
vn 0.500000 0.866025 0.000000
vn 0.500000 0.866025 0.000000
vn 0.130526 0.991445 0.000000
vn 0.130526 0.991445 0.000000
vn -0.500000 0.866025 0.000000
vn -0.130526 0.991445 0.000000
vn -0.130526 0.991445 0.000000
vn -0.500000 0.866025 0.000000
vn -0.866025 0.500000 0.000000
vn -0.866025 0.500000 0.000000
vn -0.991445 0.130526 0.000000
vn -0.991445 0.130526 0.000000
s 1
g polySurface3
usemtl phong1SG
f 1/1/1 4/4/2 2/2/3
f 2/2/3 4/4/2 5/5/4
f 2/2/3 5/5/4 6/6/5
f 2/2/3 6/6/5 7/7/6 3/3/7
f 3/3/7 7/7/6 8/8/8
f 3/3/7 8/8/8 9/9/9
f 3/3/7 9/9/9 10/10/10
f 1/1/1 29/30/11 4/4/2
f 9/9/9 12/13/12 10/10/10
f 1/11/13 13/14/14 14/15/15 11/12/16
f 12/13/12 15/16/17 10/10/10
f 13/14/14 16/17/18 14/15/15
f 15/16/17 17/18/19 18/19/20 10/10/10
f 13/14/14 19/20/21 16/17/18
f 17/18/19 20/21/22 18/19/20
f 13/14/14 21/22/23 19/20/21
f 20/21/22 26/27/24 18/19/20
f 13/14/14 27/28/25 21/22/23
f 21/22/23 27/28/25 22/23/26
f 22/23/26 27/28/25 23/24/27
f 23/24/27 27/28/25 28/29/28 24/25/29
f 24/25/29 28/29/28 25/26/30
f 25/26/30 28/29/28 26/27/24
f 26/27/24 28/29/28 18/19/20
f 1/1/13 11/12/16 29/30/31
f 4/4/2 29/30/11 16/17/18 19/20/21
s 2
f 30/31/32 31/32/33 33/33/34
f 31/32/33 34/34/35 33/33/34
f 31/32/33 35/35/36 34/34/35
f 31/32/33 32/36/37 36/37/38 35/35/36
f 32/36/37 37/38/39 36/37/38
f 32/36/37 38/39/40 37/38/39
f 32/36/37 39/40/41 38/39/40
f 30/31/32 33/33/34 58/41/42
f 38/39/40 39/40/41 41/42/43
f 30/43/44 40/44/45 43/45/46 42/46/47
f 41/42/43 39/40/41 44/47/48
f 42/46/47 43/45/46 45/48/49
f 44/47/48 39/40/41 47/49/50 46/50/51
f 42/46/47 45/48/49 48/51/52
f 46/50/51 47/49/50 49/52/53
f 42/46/47 48/51/52 50/53/54
f 49/52/53 47/49/50 55/54/55
f 42/46/47 50/53/54 56/55/56
f 50/53/54 51/56/57 56/55/56
f 51/56/57 52/57/58 56/55/56
f 52/57/58 53/58/59 57/59/60 56/55/56
f 53/58/59 54/60/61 57/59/60
f 54/60/61 55/54/55 57/59/60
f 55/54/55 47/49/50 57/59/60
f 30/31/44 58/41/62 40/44/45
f 33/33/34 48/51/52 45/48/49 58/41/42
s 3
f 59/61/63 60/62/64 61/63/65 62/64/66
f 62/65/66 61/66/65 63/67/67 64/68/68
s off
f 64/69/69 63/70/70 65/71/71 66/72/72
s 3
f 66/73/73 65/74/74 60/75/64 59/76/63
s 5
f 67/77/75 68/78/76 69/79/77 70/80/78
f 70/81/78 69/82/77 71/83/79 72/84/80
f 72/85/80 71/86/79 73/87/81 74/88/82
f 74/89/82 73/90/81 75/91/83 76/92/84
f 76/93/84 75/94/83 77/95/85 78/96/86
f 78/97/86 77/98/85 79/99/87 80/100/88
s 6
f 80/101/89 79/102/90 81/103/91 82/104/92
f 82/105/92 81/106/91 83/107/93 84/108/94
f 84/109/94 83/110/93 85/111/95 86/112/96
f 86/113/96 85/114/95 87/115/97 88/116/98
f 88/117/98 87/118/97 89/119/99 90/120/100
f 90/121/100 89/122/99 91/123/101 92/124/102
f 92/125/102 91/126/101 93/127/103 94/128/104
f 94/129/104 93/130/103 95/131/105 96/132/106
s off
f 96/133/107 95/134/108 97/135/109 98/136/110
s 5
f 98/137/111 97/138/112 99/139/113 100/140/114
f 100/141/114 99/142/113 68/143/76 67/144/75
s off
f 101/145/115 102/146/116 3/147/117 10/148/118
f 103/149/119 104/150/120 39/151/121 32/152/122
f 105/153/123 106/154/124 1/155/125 2/156/126
f 107/157/127 108/158/128 31/159/129 30/160/130
f 18/161/131 28/162/132 109/163/133 110/164/134
f 111/165/135 112/166/136 57/167/137 47/168/138
f 13/169/139 113/170/140 114/171/141 27/172/142
f 115/173/143 116/174/144 42/175/145 56/176/146
s 16
f 103/177/147 32/178/148 3/147/149 102/179/150
f 104/180/151 103/177/147 102/179/150 101/181/152
f 39/151/153 104/182/151 101/183/152 10/184/154
f 107/185/155 30/160/156 1/186/157 106/187/158
f 108/188/159 107/189/155 106/190/158 105/191/160
f 31/192/161 108/188/159 105/191/160 2/156/162
f 111/193/163 47/168/164 18/194/165 110/195/166
f 112/196/167 111/197/163 110/198/166 109/199/168
f 57/167/169 112/196/167 109/199/168 28/162/170
f 115/200/171 56/176/172 27/172/173 114/201/174
f 116/202/175 115/200/171 114/201/174 113/203/176
f 42/175/177 116/204/175 113/205/176 13/206/178
f 1/186/157 30/160/156 42/175/177 13/206/178
f 39/151/153 10/184/154 18/194/165 47/168/164
f 31/192/161 2/156/162 3/147/149 32/178/148
f 27/172/173 56/176/172 57/167/169 28/162/170
