# This file uses centimeters as units for non-parametric coordinates.

mtllib tank.mtl
g default
v -0.208484 0.555844 0.645616
v 0.403738 0.555844 0.652695
v -0.208484 0.963650 0.645616
v 0.403738 0.942730 0.652695
v 0.748975 0.555844 0.659774
v 0.748975 0.927685 0.659774
v 1.415371 0.648554 0.165752
v 1.415371 0.823085 0.165752
v 1.565009 0.676448 0.159426
v 1.572826 0.815650 0.159426
v -0.480445 0.578129 0.560670
v -0.480445 0.962552 0.560670
v -0.892105 0.666090 0.380823
v -0.885629 0.902891 0.380823
v 1.415371 0.732547 0.165752
v 0.748975 0.633568 0.659774
v 0.403738 0.670357 0.652695
v -0.208484 0.684376 0.645616
v -0.480445 0.666021 0.560670
v -0.892105 0.705966 0.380823
v -0.877645 0.669708 0.000000
v -0.892031 0.914827 0.000000
v 1.587647 0.685049 0.000000
v -0.208484 0.997419 0.000000
v 0.403738 0.976499 0.000000
v 0.748975 0.927685 0.000000
v 1.415371 0.823085 0.000000
v -0.480445 0.962552 0.000000
v -0.208484 0.509087 0.000000
v 0.403738 0.509087 0.000000
v 0.748975 0.509087 0.000000
v 1.415371 0.648554 0.000000
v -0.480445 0.531372 0.000000
v -0.208484 0.555844 -0.645616
v 0.403738 0.555844 -0.652695
v 0.403738 0.670357 -0.652695
v -0.208484 0.684376 -0.645616
v 0.403738 0.942730 -0.652695
v 0.748975 0.927685 -0.659774
v 0.748975 0.633568 -0.659774
v 1.415371 0.823085 -0.165752
v 1.415371 0.732547 -0.165752
v 1.572826 0.815650 -0.159426
v -0.480445 0.666021 -0.560670
v -0.480445 0.531372 -0.560670
v -0.892105 0.705966 -0.380823
v -0.892105 0.666090 -0.380823
v 1.415371 0.648554 -0.165752
v 1.565009 0.676448 -0.159426
v 0.748975 0.555844 -0.659774
v -0.208484 0.963650 -0.645616
v -0.480445 0.962552 -0.560670
v -0.885629 0.902891 -0.380823
v 1.575085 0.808461 0.000000
v 1.572826 0.741803 0.159426
v 1.586378 0.734159 0.000000
v 1.572826 0.738232 -0.159426
v -1.312956 0.699787 0.000000
v -1.325576 0.914827 0.000000
v -1.319175 0.893368 -0.380823
v -1.325651 0.717207 -0.380823
v -1.325651 0.717207 0.380823
v -1.319175 0.893368 0.380823
v -1.311191 0.669708 0.000000
v -1.325651 0.677330 -0.380823
v -1.325651 0.677330 0.380823
vt 0.000000 0.000000
vt 0.000000 1.000000
vt 1.000000 1.000000
vt 0.000000 1.000000
vt 0.000000 0.000000
vt 1.000000 0.000000
vt 1.000000 1.000000
vt 0.000000 1.000000
vt 0.000000 0.000000
vt 1.000000 0.000000
vt 0.740624 1.000000
vt 0.000000 1.000000
vt 0.000000 0.000000
vt 1.000000 0.000000
vt 1.000000 1.000000
vt 0.000000 1.000000
vt 0.000000 0.000000
vt 1.000000 0.000000
vt 1.000000 1.000000
vt 0.000000 1.000000
vt 0.481249 0.000000
vt 0.481249 1.000000
vt 0.481249 0.000000
vt 0.481249 1.000000
vt 0.481249 0.000000
vt 0.000000 0.481249
vt 0.481249 0.000000
vt 0.481249 1.000000
vt 0.481249 1.000000
vt 0.000000 0.000000
vt 1.000000 0.000000
vt 1.000000 0.000000
vt 1.000000 1.000000
vt 0.000000 1.000000
vt 0.000000 0.000000
vt 1.000000 0.000000
vt 0.000000 0.000000
vt 1.000000 1.000000
vt 0.000000 1.000000
vt 0.000000 0.000000
vt 1.000000 1.000000
vt 0.000000 1.000000
vt 0.000000 0.000000
vt 1.000000 0.000000
vt 1.000000 1.000000
vt 0.000000 1.000000
vt 1.000000 0.000000
vt 1.000000 1.000000
vt 0.000000 1.000000
vt 0.000000 0.000000
vt 1.000000 0.000000
vt 1.000000 1.000000
vt 0.000000 1.000000
vt 0.000000 0.000000
vt 1.000000 0.000000
vt 1.000000 1.000000
vt 0.000000 1.000000
vt 1.000000 0.000000
vt 1.000000 1.000000
vt 0.000000 1.000000
vt 1.000000 0.000000
vt 1.000000 1.000000
vt 0.000000 1.000000
vt 0.000000 0.000000
vt 1.000000 0.000000
vt 1.000000 1.000000
vt 0.000000 1.000000
vt 0.000000 0.000000
vt 1.000000 0.000000
vt 1.000000 1.000000
vt 0.000000 1.000000
vt 0.000000 0.000000
vt 1.000000 0.000000
vt 1.000000 1.000000
vt 0.000000 1.000000
vt 0.000000 0.000000
vt 1.000000 0.000000
vt 1.000000 1.000000
vt 0.000000 1.000000
vt 0.000000 0.000000
vt 1.000000 0.000000
vt 1.000000 0.481249
vt 0.000000 0.481249
vt 0.481249 0.000000
vt 1.000000 0.000000
vt 1.000000 1.000000
vt 0.481249 1.000000
vt 0.481249 0.000000
vt 1.000000 0.000000
vt 1.000000 1.000000
vt 0.481249 1.000000
vt 0.481249 0.000000
vt 1.000000 0.000000
vt 0.740624 1.000000
vt 0.000000 0.000000
vt 0.481249 0.000000
vt 0.481249 1.000000
vt 0.000000 1.000000
vt 0.000000 0.000000
vt 0.481249 0.000000
vt 0.481249 1.000000
vt 0.000000 1.000000
vt 0.000000 0.000000
vt 0.000000 1.000000
vt 0.000000 0.000000
vt 0.000000 1.000000
vt 0.000000 0.000000
vt 0.000000 1.000000
vt 1.000000 1.000000
vt 0.000000 1.000000
vt 1.000000 0.000000
vt 1.000000 1.000000
vt 1.000000 0.000000
vt 1.000000 1.000000
vt 0.000000 0.000000
vt 0.500000 1.000000
vt 0.000000 0.000000
vt 1.000000 0.000000
vt 1.000000 1.000000
vt 0.000000 0.000000
vt 0.500000 1.000000
vt 0.000000 0.000000
vt 1.000000 0.000000
vt 1.000000 1.000000
vt 0.000000 1.000000
vt 0.000000 0.000000
vt 1.000000 0.000000
vt 1.000000 1.000000
vt 0.000000 1.000000
vt 0.000000 0.000000
vt 1.000000 0.000000
vt 1.000000 1.000000
vt 0.000000 1.000000
vt 0.000000 0.000000
vt 1.000000 0.000000
vt 1.000000 1.000000
vt 0.000000 0.000000
vt 1.000000 0.000000
vt 1.000000 1.000000
vt 0.000000 1.000000
vt 0.000000 0.000000
vt 1.000000 0.000000
vt 1.000000 1.000000
vt 0.000000 1.000000
vt 0.000000 0.000000
vt 1.000000 0.000000
vt 1.000000 1.000000
vt 0.000000 1.000000
vt 0.000000 0.000000
vt 1.000000 0.000000
vt 1.000000 1.000000
vt 0.000000 1.000000
vt 0.000000 0.000000
vt 1.000000 0.000000
vt 1.000000 1.000000
vt 0.000000 1.000000
vt 0.000000 0.000000
vt 1.000000 0.000000
vt 1.000000 1.000000
vt 0.000000 1.000000
vt 0.000000 0.000000
vt 1.000000 0.000000
vt 1.000000 1.000000
vt 0.000000 1.000000
vt 0.000000 0.000000
vt 1.000000 0.000000
vt 1.000000 1.000000
vt 0.000000 1.000000
vt 1.000000 0.000000
vt 1.000000 0.481249
vt 0.481249 0.000000
vt 1.000000 0.000000
vt 0.000000 0.000000
vt 1.000000 1.000000
vt 1.000000 0.000000
vt 1.000000 0.000000
vt 0.000000 0.000000
vt 0.000000 0.000000
vt 0.641430 1.000000
vt 0.282860 1.000000
vt 0.000000 0.000000
vt 0.395734 1.000000
vt 0.563055 1.000000
vt 0.126109 1.000000
vt 0.370312 1.000000
vt 0.500000 0.000000
vt 0.122713 1.000000
vt 0.561356 1.000000
vt 1.000000 1.000000
vt 1.000000 0.000000
vt 1.000000 0.000000
vt 0.000000 0.000000
vt 1.000000 0.000000
vt 1.000000 1.000000
vt 0.000000 0.000000
vt 0.000000 1.000000
vt 0.500000 1.000000
vt 0.000000 0.000000
vn -0.011562 -0.000000 -0.999933
vn -0.011562 -0.000000 -0.999933
vn -0.011562 -0.000000 -0.999933
vn -0.011562 -0.000000 -0.999933
vn 0.020500 -0.000000 0.999790
vn 0.020500 -0.000000 0.999790
vn 0.020500 -0.000000 0.999790
vn 0.020500 -0.000000 0.999790
vn -0.595535 0.000000 0.803329
vn -0.595535 0.000000 0.803329
vn -0.595535 0.000000 0.803329
vn -0.595535 0.000000 0.803329
vn -0.298143 -0.000000 -0.954521
vn -0.298143 -0.000000 -0.954521
vn -0.298143 -0.000000 -0.954521
vn -0.298143 -0.000000 -0.954521
vn -0.400343 -0.000000 -0.916365
vn -0.209886 -0.000000 -0.977726
vn -0.210684 0.001388 -0.977553
vn -0.400343 -0.000000 -0.916365
vn -0.041404 0.002220 0.999140
vn -0.041404 0.002220 0.999140
vn -0.041404 0.002220 0.999140
vn -0.041404 0.002220 0.999140
vn -0.595535 0.000000 0.803329
vn -0.595535 0.000000 0.803329
vn -0.595535 0.000000 0.803329
vn -0.595535 0.000000 0.803329
vn 0.020500 0.000000 0.999790
vn 0.020500 0.000000 0.999790
vn 0.020500 0.000000 0.999790
vn 0.020500 0.000000 0.999790
vn -0.011562 0.000000 -0.999933
vn -0.011562 0.000000 -0.999933
vn -0.011562 0.000000 -0.999933
vn -0.011562 0.000000 -0.999933
vn -0.298143 0.000000 -0.954521
vn -0.298143 0.000000 -0.954521
vn -0.298143 0.000000 -0.954521
vn -0.298143 0.000000 -0.954521
vn -0.211482 0.002775 -0.977378
vn -0.403104 0.005290 -0.915139
vn -0.403104 0.005290 -0.915139
vn -0.999877 -0.015704 0.000000
vn -0.999877 -0.015704 0.000000
vn -0.999842 -0.015704 0.008345
vn -0.999842 -0.015704 0.008345
vn -0.018369 0.999033 -0.039951
vn -0.018369 0.999033 -0.039951
vn 0.033805 0.998079 -0.051920
vn 0.033805 0.998079 -0.051920
vn -0.123144 -0.992304 0.012960
vn -0.123144 -0.992304 0.012960
vn -0.091801 -0.995448 0.025612
vn -0.091801 -0.995448 0.025612
vn -0.111460 -0.993708 -0.010959
vn -0.111467 -0.993768 -0.000000
vn -0.068953 -0.997620 -0.000000
vn -0.068937 -0.997388 -0.021570
vn -0.101533 0.994615 -0.020770
vn -0.101555 0.994830 0.000000
vn -0.071621 0.997012 -0.028944
vn -0.071651 0.997430 -0.000000
vn -0.000415 -0.997416 -0.071842
vn -0.000417 -1.000000 -0.000000
vn -0.023699 -0.999678 0.009033
vn -0.001231 -0.998478 -0.055131
vn 0.000729 0.997471 0.071071
vn 0.000730 1.000000 0.000000
vn -0.093554 0.995614 0.000000
vn -0.093364 0.993587 0.063777
vn -0.193755 0.981050 -0.000000
vn -0.193711 0.980825 0.021420
vn -0.195899 0.980624 0.000000
vn -0.195884 0.980550 -0.012299
vn -0.166618 -0.985794 0.021194
vn -0.150497 -0.988463 -0.017053
vn -0.146763 -0.989106 0.011430
vn -0.155656 -0.987810 0.001387
vn -0.011562 -0.000000 0.999933
vn -0.011562 -0.000000 0.999933
vn -0.011562 -0.000000 0.999933
vn -0.011562 -0.000000 0.999933
vn 0.020500 -0.000000 -0.999790
vn 0.020500 -0.000000 -0.999790
vn 0.020500 -0.000000 -0.999790
vn 0.020500 -0.000000 -0.999790
vn -0.595535 -0.000000 -0.803329
vn -0.595535 -0.000000 -0.803329
vn -0.595535 -0.000000 -0.803329
vn -0.595535 -0.000000 -0.803329
vn -0.041424 0.002168 -0.999139
vn -0.041424 0.002168 -0.999139
vn -0.041424 0.002168 -0.999139
vn -0.041424 0.002168 -0.999139
vn -0.298143 -0.000000 0.954521
vn -0.298143 -0.000000 0.954521
vn -0.298143 -0.000000 0.954521
vn -0.298143 -0.000000 0.954521
vn -0.400343 -0.000000 0.916366
vn -0.400343 -0.000000 0.916366
vn -0.210684 0.001388 0.977553
vn -0.209886 -0.000000 0.977726
vn -0.595535 -0.000000 -0.803329
vn -0.595535 -0.000000 -0.803329
vn -0.595535 -0.000000 -0.803329
vn -0.595535 -0.000000 -0.803329
vn 0.020500 0.000000 -0.999790
vn 0.020500 0.000000 -0.999790
vn 0.020500 0.000000 -0.999790
vn 0.020500 0.000000 -0.999790
vn -0.011562 0.000000 0.999933
vn -0.011562 0.000000 0.999933
vn -0.011562 0.000000 0.999933
vn -0.011562 0.000000 0.999933
vn -0.298143 0.000000 0.954521
vn -0.298143 0.000000 0.954521
vn -0.298143 0.000000 0.954521
vn -0.298143 0.000000 0.954521
vn -0.403104 0.005290 0.915139
vn -0.403104 0.005290 0.915139
vn -0.211482 0.002775 0.977378
vn -0.999842 -0.015704 -0.008345
vn -0.999842 -0.015704 -0.008345
vn -0.068937 -0.997388 0.021570
vn -0.111460 -0.993708 0.010959
vn -0.018369 0.999033 0.039951
vn 0.033805 0.998079 0.051920
vn 0.033805 0.998079 0.051920
vn -0.018369 0.999033 0.039951
vn -0.123144 -0.992304 -0.012960
vn -0.091801 -0.995448 -0.025612
vn -0.091801 -0.995448 -0.025612
vn -0.123144 -0.992304 -0.012960
vn -0.101533 0.994615 0.020770
vn -0.071621 0.997012 0.028943
vn -0.000415 -0.997416 0.071842
vn -0.046509 -0.996139 0.074455
vn 0.000729 0.997471 -0.071071
vn -0.093364 0.993587 -0.063777
vn -0.193711 0.980825 -0.021420
vn -0.195885 0.980550 0.012299
vn -0.182437 -0.981423 0.059370
vn -0.137978 -0.990206 0.021319
vn -0.998315 0.058028 -0.000323
vn -0.998315 0.058028 -0.000323
vn -0.992007 0.058575 0.111765
vn -0.992007 0.058575 0.111765
vn -0.992038 0.056750 -0.112430
vn -0.992038 0.056750 -0.112430
vn -0.040142 -0.000000 -0.999194
vn -0.040142 -0.000000 -0.999194
vn -0.040142 -0.000000 -0.999194
vn -0.040142 -0.000000 -0.999194
vn -0.997175 -0.075118 0.000455
vn -0.996058 -0.075928 -0.045864
vn -0.996058 -0.075928 -0.045864
vn -0.997175 -0.075118 0.000455
vn -0.996149 -0.074146 0.046782
vn -0.996149 -0.074146 0.046782
vn -0.040142 -0.000000 0.999194
vn -0.040142 -0.000000 0.999194
vn -0.040142 -0.000000 0.999194
vn -0.040142 -0.000000 0.999194
vn -0.999682 -0.025224 -0.000000
vn -0.999682 -0.025224 -0.000000
vn -0.999077 -0.025209 0.034792
vn -0.999077 -0.025209 0.034792
vn -0.999077 -0.025209 -0.034792
vn -0.999077 -0.025209 -0.034792
vn -0.010971 0.998972 -0.043984
vn -0.010982 0.999940 -0.000000
vn -0.000000 0.000000 -1.000000
vn -0.000000 0.000000 -1.000000
vn -0.000000 0.000000 1.000000
vn -0.000000 0.000000 1.000000
vn -0.010971 0.998972 0.043984
vn -0.000000 0.000000 -1.000000
vn -0.012962 -0.999916 0.000000
vn -0.012962 -0.999905 -0.004764
vn -0.012962 -0.999905 0.004764
vn 0.000000 0.000000 1.000000
s off
g torretta
usemtl lambert5SG
f 34/1/1 37/26/2 36/170/3 35/169/4
f 36/171/5 40/24/6 39/3/7 38/172/8
f 40/23/9 42/22/10 41/7/11 39/6/12
f 34/13/13 45/16/14 44/28/15 37/25/16
s 5
f 45/17/17 47/20/18 46/29/19 44/27/20
s off
f 42/21/21 48/9/22 49/12/23 57/185/24
f 50/5/25 48/8/26 42/22/27 40/23/28
f 35/173/29 50/4/30 40/24/31 36/171/32
f 37/26/33 51/2/34 38/174/35 36/170/36
f 44/28/37 52/15/38 51/14/39 37/25/40
s 5
f 46/29/19 53/19/41 52/18/42 44/27/43
s 11
f 58/187/44 59/189/45 60/190/46 61/191/47
s 12
f 51/37/48 24/39/49 25/38/50 38/175/51
s 13
f 39/40/52 26/42/53 25/41/54 38/176/55
f 41/43/56 27/46/57 26/45/53 39/44/52
f 54/180/58 27/48/57 41/47/56 43/36/59
s 12
f 52/50/60 28/53/61 24/52/49 51/51/48
f 53/54/62 22/57/63 28/56/61 52/55/60
s 14
f 35/177/64 30/60/65 29/59/66 34/58/67
s 15
f 35/178/68 30/63/69 31/62/70 50/61/71
f 50/64/71 31/67/70 32/66/72 48/65/73
f 48/68/73 32/71/72 23/70/74 49/69/75
s 14
f 34/72/67 29/75/66 33/74/76 45/73/77
f 45/76/77 33/79/76 21/78/78 47/77/79
s off
f 1/80/80 2/81/81 17/82/82 18/83/83
f 17/84/84 4/85/85 6/86/86 16/87/87
f 16/88/88 6/89/89 8/90/90 15/91/91
f 15/92/92 55/182/93 9/104/94 7/103/95
f 1/95/96 18/96/97 19/97/98 11/98/99
s 21
f 11/99/100 19/100/101 20/101/102 13/102/103
s off
f 5/105/104 16/88/105 15/91/106 7/106/107
f 2/107/108 17/84/109 16/87/110 5/108/111
f 18/83/112 17/82/113 4/109/114 3/110/115
f 19/97/116 18/96/117 3/111/118 12/112/119
s 21
f 20/101/102 19/100/120 12/113/121 14/114/122
s 11
f 58/188/44 62/192/123 63/193/124 59/194/45
s 13
f 54/179/58 10/134/125 8/135/126 27/136/57
s 12
f 3/122/127 4/123/128 25/124/129 24/125/130
s 13
f 6/126/131 4/127/132 25/128/133 26/129/134
f 8/130/126 6/131/131 26/132/134 27/133/57
s 12
f 12/137/135 3/138/127 24/139/130 28/140/61
f 14/141/136 12/142/135 28/143/61 22/144/63
s 14
f 2/145/137 1/146/138 29/147/66 30/148/65
s 15
f 2/149/139 5/150/140 31/151/70 30/152/69
f 5/153/140 7/154/141 32/155/72 31/156/70
f 7/157/141 9/158/142 23/159/74 32/160/72
s 14
f 1/161/138 11/162/143 33/163/76 29/164/66
f 11/165/143 13/166/144 21/167/78 33/168/76
s 26
f 23/49/145 56/184/146 57/186/147 49/35/148
f 23/121/145 9/120/149 55/181/150 56/183/146
s off
f 15/92/151 8/93/152 10/94/153 55/182/154
s 28
f 56/183/155 55/181/156 10/134/157 54/179/158
f 57/186/159 56/184/155 54/180/158 43/36/160
s off
f 42/21/161 57/185/162 43/11/163 41/10/164
s 30
f 64/196/165 58/187/166 61/191/167 65/195/168
f 64/197/165 66/198/169 62/192/170 58/188/166
s 12
f 22/33/63 53/32/62 60/190/171 59/189/172
s 5
f 53/32/41 46/31/19 61/191/173 60/190/174
s 21
f 20/117/102 14/118/122 63/193/175 62/192/176
s 12
f 14/118/136 22/119/63 59/194/172 63/193/177
s 5
f 46/31/19 47/30/18 65/195/178 61/191/173
s 14
f 47/30/79 21/34/78 64/196/179 65/195/180
f 21/116/78 13/115/144 66/198/181 64/197/179
s 21
f 13/115/103 20/117/102 62/192/176 66/198/182

