# This file uses centimeters as units for non-parametric coordinates.

mtllib urb_crate.mtl
g default
v -0.500000 0.000000 0.500000
v 0.500000 0.000000 0.500000
v -0.500000 1.000000 0.500000
v 0.500000 1.000000 0.500000
v -0.500000 1.000000 -0.500000
v 0.500000 1.000000 -0.500000
v -0.500000 0.000000 -0.500000
v 0.500000 0.000000 -0.500000
vt 1.000000 0.000000
vt 2.000000 1.000000
vt 1.000000 2.000000
vt 2.000000 2.000000
vt 2.000000 2.000000
vt 3.000000 1.000000
vt 2.000000 1.000000
vt 1.000000 0.000000
vt 2.000000 0.000000
vt 2.000000 0.000000
vt 1.000000 1.000000
vt 1.000000 1.000000
vt 3.000000 0.000000
vt 0.000000 0.000000
vt 0.000000 1.000000
vt 1.000000 1.000000
vt 3.000000 1.000000
vt 2.000000 1.000000
vt 3.000000 2.000000
vt 0.000000 1.000000
vt 1.000000 2.000000
vt 2.000000 1.000000
vt 0.000000 2.000000
vt 1.000000 1.000000
vn 0.000000 0.000000 1.000000
vn 0.000000 0.000000 1.000000
vn 0.000000 0.000000 1.000000
vn 0.000000 0.000000 1.000000
vn 0.000000 1.000000 0.000000
vn 0.000000 1.000000 0.000000
vn 0.000000 1.000000 0.000000
vn 0.000000 1.000000 0.000000
vn 0.000000 0.000000 -1.000000
vn 0.000000 0.000000 -1.000000
vn 0.000000 0.000000 -1.000000
vn 0.000000 0.000000 -1.000000
vn 0.000000 -1.000000 0.000000
vn 0.000000 -1.000000 0.000000
vn 0.000000 -1.000000 0.000000
vn 0.000000 -1.000000 0.000000
vn 1.000000 0.000000 0.000000
vn 1.000000 0.000000 0.000000
vn 1.000000 0.000000 0.000000
vn 1.000000 0.000000 0.000000
vn -1.000000 0.000000 0.000000
vn -1.000000 0.000000 0.000000
vn -1.000000 0.000000 0.000000
vn -1.000000 0.000000 0.000000
s off
g textureEditorIsolateSelectSet pCube1
usemtl initialShadingGroup
f 1/15/1 2/11/2 4/21/3 3/23/4
f 3/4/5 4/22/6 6/17/7 5/19/8
f 5/6/9 6/18/10 8/9/11 7/13/12
f 7/8/13 8/10/14 2/2/15 1/16/16
f 2/12/17 8/7/18 6/5/19 4/3/20
f 7/14/21 1/1/22 3/24/23 5/20/24
