# This file uses centimeters as units for non-parametric coordinates.

mtllib urb_building_big.mtl
g default
v -0.535002 0.000000 -0.494912
v 0.502307 0.000000 -0.494912
v 0.759337 0.000000 -0.494912
v -0.535002 0.111524 -0.494912
v 0.502307 0.111524 -0.494912
v 0.759337 0.111524 -0.494912
v -0.535002 0.111524 -0.802425
v 0.502307 0.111524 -0.802425
v 0.759337 0.111524 -0.802425
v -0.535002 0.000000 -0.802425
v 0.502307 0.000000 -0.802425
v 0.759337 0.000000 -0.802425
v 0.502307 0.000000 0.523574
v 0.759337 0.000000 0.523574
v 0.759337 0.111524 0.523574
v 0.502307 0.111524 0.523574
v -0.223290 0.111524 -0.494912
v -0.223290 0.111524 -0.802425
v -0.223290 0.000000 -0.802425
v -0.223290 0.000000 -0.494912
v 0.158173 0.111524 -0.494912
v 0.158173 0.111524 -0.802425
v 0.158173 0.000000 -0.802425
v 0.158173 0.000000 -0.494912
v 0.502307 0.111524 -0.225145
v 0.759337 0.111524 -0.225145
v 0.759337 0.000000 -0.225145
v 0.502307 0.000000 -0.225145
v 0.502307 0.111524 0.053151
v 0.759337 0.111524 0.053151
v 0.759337 0.000000 0.053151
v 0.502307 0.000000 0.053151
v 0.502307 0.111524 0.302952
v 0.759337 0.111524 0.302952
v 0.759337 0.000000 0.302952
v 0.502307 0.000000 0.302952
vt 0.000000 0.000000
vt 1.000000 0.000000
vt 1.000000 1.000000
vt 0.000000 1.000000
vt 2.150000 0.000000
vt 2.150000 1.000000
vt 3.350000 0.000000
vt 3.350000 1.000000
vt 0.186080 1.701040
vt 0.186080 1.094432
vt 0.449284 1.094432
vt 0.449284 1.701040
vt 0.096160 1.902690
vt 0.212793 1.902690
vt 0.212793 1.959155
vt 0.096160 1.959155
vt 0.355525 1.902690
vt 0.355525 1.959155
vt 0.484290 1.902690
vt 0.484290 1.959155
vt 1.094353 1.958686
vt 0.580463 1.959155
vt 0.835849 1.939616
vt 1.094353 1.939616
vt 0.835849 1.929391
vt 1.094353 1.929391
vt 0.835849 1.920214
vt 1.094353 1.920214
vt 0.835849 1.912108
vt 1.094353 1.912108
vt -0.878971 0.986162
vt -0.878971 0.869529
vt -0.837242 0.869529
vt -0.837242 0.986162
vt -0.878971 0.726797
vt -0.837242 0.726797
vt -0.878971 0.598033
vt -0.837242 0.598033
vt -0.878971 0.501860
vt -0.837242 0.501860
vt 0.044776 0.330549
vt 0.161409 0.330549
vt 0.161409 0.445611
vt 0.044776 0.445611
vt 0.304141 0.330549
vt 0.304141 0.445611
vt 0.432906 0.330549
vt 0.432906 0.445611
vt 0.529079 0.330549
vt 0.529079 0.445611
vt 0.529079 0.546549
vt 0.432906 0.546549
vt 0.529079 0.650679
vt 0.432906 0.650679
vt 0.529079 0.744147
vt 0.432906 0.744147
vt 0.529079 0.791340
vt 0.432906 0.791340
vt -0.831525 0.616921
vt -0.831525 0.501860
vt -0.789796 0.501860
vt -0.789796 0.616921
vt -0.789796 0.717860
vt -0.831525 0.717860
vt -0.789796 0.821990
vt -0.831525 0.821990
vt -0.789796 0.915458
vt -0.831525 0.915458
vt -0.789796 0.998008
vt -0.831525 0.998008
vt 0.485344 1.820181
vt 0.485344 1.094432
vt 0.748549 1.094432
vt 0.748549 1.820181
vt 0.000000 2.000000
vt 0.000000 1.000000
vt 0.800000 1.000000
vt 0.800000 2.000000
vt 1.600000 1.000000
vt 1.600000 2.000000
vt 2.450000 1.000000
vt 2.450000 2.000000
vt 3.350000 1.000000
vt 3.350000 2.000000
vt 0.432906 0.744147
vt 2.450000 1.000000
vt 0.835849 1.920214
vt 2.450000 2.000000
vt -0.831525 0.915458
vt 0.529079 0.744147
vt 1.094353 1.920214
vt -0.789796 0.915458
vt 0.432906 0.650679
vt 1.600000 1.000000
vt 0.835849 1.929391
vt 1.600000 2.000000
vt -0.831525 0.821990
vt 0.529079 0.650679
vt 1.094353 1.929391
vt -0.789796 0.821990
vt 0.432906 0.546549
vt 0.800000 1.000000
vt 0.835849 1.939616
vt 0.800000 2.000000
vt -0.831525 0.717860
vt 0.529079 0.546549
vt 1.094353 1.939616
vt -0.789796 0.717860
vt 0.304141 0.445611
vt 2.150000 0.000000
vt 0.355525 1.902690
vt 2.150000 1.000000
vt -0.837242 0.726797
vt 0.304141 0.330549
vt 0.432906 0.445611
vt 0.432906 0.445611
vt 0.355525 1.959155
vt -0.878971 0.726797
vt 0.432906 0.330549
vt -0.837242 0.598033
vt -0.878971 0.598033
vt 0.484290 1.959155
vt 0.484290 1.902562
vt 0.835849 1.958250
vt 0.161409 0.445611
vt 1.000000 0.000000
vt 0.212793 1.902690
vt 1.000000 1.000000
vt -0.837242 0.869529
vt 0.161409 0.330549
vt 0.212793 1.959155
vt -0.878971 0.869529
vt 0.580463 1.902383
vt -0.789796 0.616921
vt -0.831525 0.616921
vt 0.529079 0.445611
vn 0.000000 0.000000 1.000000
vn 0.000000 0.000000 1.000000
vn 0.000000 0.000000 1.000000
vn 0.000000 0.000000 1.000000
vn -0.000000 0.000000 1.000000
vn -0.000000 0.000000 1.000000
vn -0.000000 0.000000 1.000000
vn -0.000000 0.000000 1.000000
vn 0.000000 1.000000 -0.000000
vn 0.000000 1.000000 -0.000000
vn 0.000000 1.000000 -0.000000
vn 0.000000 1.000000 -0.000000
vn 0.000000 1.000000 0.000000
vn 0.000000 1.000000 -0.000000
vn 0.000000 1.000000 0.000000
vn 0.000000 1.000000 0.000000
vn 0.000000 0.000000 -1.000000
vn 0.000000 0.000000 -1.000000
vn 0.000000 0.000000 -1.000000
vn 0.000000 0.000000 -1.000000
vn 0.000000 0.000000 -1.000000
vn 0.000000 0.000000 -1.000000
vn 0.000000 0.000000 -1.000000
vn 0.000000 0.000000 -1.000000
vn 0.000000 -1.000000 0.000000
vn 0.000000 -1.000000 0.000000
vn 0.000000 -1.000000 0.000000
vn 0.000000 -1.000000 0.000000
vn 0.000000 -1.000000 -0.000000
vn 0.000000 -1.000000 0.000000
vn 0.000000 -1.000000 0.000000
vn 0.000000 -1.000000 -0.000000
vn 1.000000 -0.000000 0.000000
vn 1.000000 0.000000 0.000000
vn 1.000000 0.000000 0.000000
vn 1.000000 -0.000000 0.000000
vn -1.000000 0.000000 0.000000
vn -1.000000 0.000000 0.000000
vn -1.000000 0.000000 0.000000
vn -1.000000 0.000000 0.000000
vn 0.000000 -1.000000 0.000000
vn 0.000000 -1.000000 0.000000
vn 1.000000 -0.000000 0.000000
vn 1.000000 -0.000000 0.000000
vn 0.000000 1.000000 -0.000000
vn 0.000000 1.000000 -0.000000
vn -1.000000 0.000000 0.000000
vn -1.000000 0.000000 0.000000
vn -1.000000 0.000000 0.000000
vn -1.000000 0.000000 0.000000
vn 0.000000 1.000000 0.000000
vn 0.000000 1.000000 0.000000
vn 0.000000 1.000000 0.000000
vn 0.000000 1.000000 0.000000
vn -0.000000 0.000000 -1.000000
vn -0.000000 0.000000 -1.000000
vn -0.000000 0.000000 -1.000000
vn -0.000000 0.000000 -1.000000
vn 0.000000 -1.000000 0.000000
vn 0.000000 -1.000000 0.000000
vn 0.000000 -1.000000 0.000000
vn 0.000000 -1.000000 0.000000
vn -0.000000 0.000000 1.000000
vn -0.000000 0.000000 1.000000
vn -0.000000 0.000000 1.000000
vn -0.000000 0.000000 1.000000
vn 0.000000 1.000000 0.000000
vn 0.000000 1.000000 0.000000
vn -0.000000 0.000000 -1.000000
vn -0.000000 0.000000 -1.000000
vn 0.000000 -1.000000 -0.000000
vn 0.000000 -1.000000 -0.000000
vn -0.000000 0.000000 1.000000
vn -0.000000 0.000000 1.000000
vn -0.000000 0.000000 1.000000
vn -0.000000 0.000000 1.000000
vn 0.000000 1.000000 -0.000000
vn 0.000000 1.000000 -0.000000
vn 0.000000 1.000000 -0.000000
vn 0.000000 1.000000 -0.000000
vn 1.000000 0.000000 0.000000
vn 1.000000 0.000000 0.000000
vn 1.000000 0.000000 0.000000
vn 1.000000 0.000000 0.000000
vn 0.000000 -1.000000 0.000000
vn 0.000000 -1.000000 0.000000
vn 0.000000 -1.000000 0.000000
vn 0.000000 -1.000000 0.000000
vn -1.000000 0.000000 0.000000
vn -1.000000 0.000000 0.000000
vn -1.000000 0.000000 0.000000
vn -1.000000 0.000000 0.000000
vn 0.000000 1.000000 -0.000000
vn 0.000000 1.000000 -0.000000
vn 0.000000 1.000000 -0.000000
vn 0.000000 1.000000 -0.000000
vn 1.000000 0.000000 0.000000
vn 1.000000 0.000000 0.000000
vn 1.000000 0.000000 0.000000
vn 1.000000 0.000000 0.000000
vn 0.000000 -1.000000 0.000000
vn 0.000000 -1.000000 0.000000
vn 0.000000 -1.000000 0.000000
vn 0.000000 -1.000000 0.000000
vn -1.000000 0.000000 0.000000
vn -1.000000 0.000000 0.000000
vn -1.000000 0.000000 0.000000
vn -1.000000 0.000000 0.000000
vn 0.000000 1.000000 -0.000000
vn 0.000000 1.000000 -0.000000
vn 0.000000 1.000000 -0.000000
vn 0.000000 1.000000 -0.000000
vn 1.000000 -0.000000 -0.000000
vn 1.000000 -0.000000 -0.000000
vn 1.000000 -0.000000 -0.000000
vn 1.000000 -0.000000 -0.000000
vn 0.000000 -1.000000 0.000000
vn 0.000000 -1.000000 0.000000
vn 0.000000 -1.000000 0.000000
vn 0.000000 -1.000000 0.000000
vn -1.000000 -0.000000 0.000000
vn -1.000000 -0.000000 0.000000
vn -1.000000 -0.000000 0.000000
vn -1.000000 -0.000000 0.000000
s off
g pCube1
usemtl lambert6SG
f 1/1/1 20/126/2 17/3/3 4/4/4
f 13/9/5 14/10/6 15/11/7 16/12/8
f 4/13/9 17/14/10 18/131/11 7/16/12
s 4
f 5/123/13 6/133/14 9/22/15 8/20/16
s off
f 7/31/17 18/132/18 19/129/19 10/34/20
s 6
f 8/121/21 9/39/22 12/40/23 11/38/24
s off
f 10/41/25 19/130/26 20/125/27 1/44/28
s 8
f 11/119/29 12/49/30 3/50/31 2/115/32
s 9
f 3/135/33 12/60/34 9/61/35 6/62/36
s off
f 10/71/37 1/72/38 4/73/39 7/74/40
s 8
f 2/48/32 3/136/31 27/106/41 28/101/42
s 9
f 3/59/33 6/134/36 26/108/43 27/105/44
s 4
f 6/21/14 5/124/13 25/23/45 26/107/46
s off
f 5/75/47 2/76/48 28/102/49 25/78/50
f 17/127/51 21/17/52 22/117/53 18/15/54
f 19/33/55 18/32/56 22/118/57 23/113/58
f 20/43/59 19/42/60 23/114/61 24/109/62
f 17/128/63 20/2/64 24/110/65 21/6/66
s 4
f 21/111/67 5/19/13 8/122/16 22/18/68
s 6
f 23/36/69 22/35/70 8/37/21 11/120/24
s 8
f 24/46/71 23/45/72 11/47/29 2/116/32
s off
f 21/112/73 24/5/74 2/7/75 5/8/76
f 26/24/77 25/103/78 29/25/79 30/99/80
f 27/64/81 26/63/82 30/100/83 31/97/84
f 28/52/85 27/51/86 31/98/87 32/93/88
f 25/104/89 28/77/90 32/94/91 29/80/92
f 30/26/93 29/95/94 33/27/95 34/91/96
f 31/66/97 30/65/98 34/92/99 35/89/100
f 32/54/101 31/53/102 35/90/103 36/85/104
f 29/96/105 32/79/106 36/86/107 33/82/108
f 34/28/109 33/87/110 16/29/111 15/30/112
f 35/68/113 34/67/114 15/69/115 14/70/116
f 36/56/117 35/55/118 14/57/119 13/58/120
f 33/88/121 36/81/122 13/83/123 16/84/124
