# This file uses centimeters as units for non-parametric coordinates.

mtllib urb_wall.mtl
g default
v 1.019497 0.000000 0.517755
v -0.523711 0.030278 0.517755
v 1.019497 0.030278 0.517755
v -0.523711 0.030278 0.499584
v 1.019497 0.030278 0.499584
v 1.019497 0.000000 0.499584
v -0.499888 0.030278 0.517755
v -0.499888 0.030278 0.499584
v -0.499888 0.000000 0.499584
v -0.523712 0.030278 -0.968702
v -0.499889 0.030278 -0.968702
v -0.499889 0.000000 -0.968702
v -0.523712 0.000000 -0.968702
vt -47.914021 45.951412
vt -47.914021 44.547211
vt -46.842968 44.547211
vt -46.842968 45.951412
vt -47.914021 -45.010174
vt -46.842968 -45.010174
vt 39.702484 44.547260
vt 39.702484 45.951481
vt 45.516922 -45.010170
vt 46.921124 -45.010170
vt 46.921124 -43.225483
vt 45.516922 -43.225483
vt 47.648712 -45.010181
vt 48.719761 -45.010181
vt 48.719761 -43.225498
vt 47.648712 -43.225498
vt 44.782200 41.535267
vt 42.997517 41.535267
vt 42.997517 -45.010181
vt 44.782200 -45.010181
vt 42.262806 44.547207
vt 40.478119 44.547207
vt 40.478119 -45.010170
vt 42.262806 -45.010170
vn 0.000000 1.000000 0.000000
vn 0.000000 1.000000 0.000000
vn 0.000000 1.000000 0.000000
vn 0.000000 1.000000 0.000000
vn -0.000002 0.000000 -1.000000
vn -0.000002 0.000000 -1.000000
vn -0.000002 0.000000 -1.000000
vn -0.000002 0.000000 -1.000000
vn 1.000000 0.000000 0.000000
vn 1.000000 0.000000 0.000000
vn 1.000000 0.000000 0.000000
vn 1.000000 0.000000 0.000000
vn 0.000000 1.000000 0.000000
vn 0.000000 1.000000 0.000000
vn 0.000000 1.000000 0.000000
vn 0.000000 1.000000 0.000000
vn 1.000000 0.000000 -0.000001
vn 1.000000 0.000000 -0.000001
vn 1.000000 0.000000 -0.000001
vn 1.000000 0.000000 -0.000001
vn 0.000000 0.000000 -1.000000
vn 0.000000 0.000000 -1.000000
vn -0.000000 0.000000 -1.000000
vn -0.000000 0.000000 -1.000000
vn 0.000000 1.000000 0.000000
vn 0.000000 1.000000 0.000000
vn 0.000000 1.000000 0.000000
vn 0.000000 1.000000 0.000000
s off
g pCube1
usemtl lambert6SG
f 2/1/1 7/2/2 8/3/3 4/4/4
f 10/9/5 11/10/6 12/11/7 13/12/8
f 1/13/9 6/14/10 5/15/11 3/16/12
f 4/4/13 8/3/14 11/7/15 10/8/16
f 8/17/17 9/18/18 12/19/19 11/20/20
f 9/21/21 8/22/22 5/23/23 6/24/24
f 8/3/25 7/2/26 3/5/27 5/6/28
